<?xml version="1.0" standalone="no"?>
<!DOCTYPE svg PUBLIC "-//W3C//DTD SVG 20010904//EN"
 "http://www.w3.org/TR/2001/REC-SVG-20010904/DTD/svg10.dtd">
<svg version="1.0" xmlns="http://www.w3.org/2000/svg"
 width="964.000000pt" height="964.000000pt" viewBox="0 0 964.000000 964.000000"
 preserveAspectRatio="xMidYMid meet">
<metadata>
Created by potrace 1.11, written by Peter Selinger 2001-2013
</metadata>
<g transform="translate(0.000000,964.000000) scale(0.100000,-0.100000)"
fill="#000000" stroke="none">
<path d="M0 4820 l0 -4820 2576 0 c2449 0 2576 1 2570 17 -19 51 -557 1060
-668 1254 -52 91 -110 192 -128 225 -48 86 -100 177 -160 279 -29 50 -73 125
-99 169 -25 43 -53 90 -62 105 -9 14 -56 94 -104 176 -88 150 -119 199 -210
330 -49 71 -181 251 -200 271 -61 69 -450 596 -542 734 -185 279 -191 358 -51
725 27 72 56 136 63 144 22 23 45 6 45 -35 0 -33 22 -139 37 -174 3 -8 7 -17
8 -20 17 -50 46 -88 63 -82 6 2 12 -4 12 -13 0 -9 5 -13 10 -10 8 5 7 11 -1
21 -9 11 -6 16 15 25 33 16 39 9 39 -43 -1 -41 0 -42 10 -15 6 15 14 27 17 27
3 0 11 -12 17 -27 l10 -28 8 29 c5 19 4 36 -4 49 -8 12 -9 23 -3 29 6 6 6 23
0 46 -29 122 -37 167 -27 173 7 4 3 20 -10 45 -26 47 -27 80 -4 93 17 9 17 11
-3 33 -17 19 -23 46 -33 159 -9 95 -10 147 -3 172 6 20 8 37 5 37 -4 0 2 9 12
20 10 11 22 17 26 14 5 -3 14 7 19 22 8 20 15 25 31 21 12 -3 18 -3 15 0 -3 4
0 13 8 22 20 23 59 158 49 173 -2 5 -12 0 -21 -10 -30 -34 -59 -42 -156 -42
-139 0 -219 31 -303 119 -35 35 -63 67 -63 71 0 4 -32 41 -71 81 -98 101 -109
117 -177 254 -77 153 -95 225 -128 498 -25 206 -26 231 -15 341 21 201 65 279
173 306 80 20 165 -7 293 -93 102 -68 129 -96 132 -135 3 -56 9 -62 53 -60 30
1 46 -4 60 -20 12 -12 27 -19 36 -15 12 4 14 0 9 -19 -4 -17 1 -32 20 -53 14
-17 23 -34 21 -40 -2 -5 0 -19 5 -30 6 -16 8 -17 8 -3 1 9 5 20 11 23 5 3 7 0
4 -8 -3 -8 -1 -18 5 -21 6 -4 15 -25 21 -47 8 -29 15 -39 25 -35 15 5 65 -51
65 -72 0 -6 6 -15 13 -19 15 -10 31 -45 46 -99 6 -23 18 -45 27 -48 9 -3 14
-13 11 -20 -3 -8 -2 -43 3 -79 8 -52 7 -71 -6 -95 -9 -19 -14 -53 -12 -94 1
-35 -2 -115 -6 -178 -9 -120 -9 -181 0 -221 12 -56 14 -143 3 -226 -6 -48 -13
-120 -14 -160 -2 -39 -8 -80 -13 -90 -6 -11 -7 -39 -1 -76 8 -46 6 -62 -5 -79
-11 -15 -12 -26 -5 -40 6 -10 8 -27 4 -37 -9 -30 4 -52 25 -41 9 5 20 7 23 4
3 -3 8 4 12 15 9 28 19 26 40 -5 19 -30 12 -43 -15 -27 -14 10 -21 9 -31 -3
-10 -12 -9 -18 4 -32 16 -15 17 -15 17 1 0 15 4 16 20 7 27 -15 25 -39 -5 -50
-34 -13 -32 -25 17 -70 36 -32 40 -41 29 -54 -17 -20 -6 -72 25 -113 13 -17
24 -36 24 -42 0 -6 3 -10 8 -10 23 4 32 -4 32 -30 0 -21 6 -32 20 -36 11 -3
20 -15 20 -26 0 -12 7 -19 19 -19 11 0 23 -4 26 -10 3 -5 15 -10 26 -10 11 0
22 -7 25 -15 4 -8 11 -12 18 -8 6 4 5 -1 -2 -10 -19 -23 -11 -62 12 -62 11 0
20 -8 22 -17 1 -10 12 -29 23 -44 12 -15 21 -37 21 -50 0 -16 10 -28 30 -39
16 -8 34 -24 40 -35 6 -11 21 -20 34 -20 33 0 83 -23 79 -36 -2 -6 8 -27 22
-48 14 -21 23 -41 20 -46 -5 -8 23 -25 38 -22 4 1 12 -9 17 -22 11 -29 86 -48
101 -25 8 12 11 11 19 -1 8 -13 10 -13 10 2 0 11 5 15 15 12 10 -4 13 -13 10
-24 -7 -21 19 -34 43 -21 12 7 19 4 27 -12 8 -16 19 -21 37 -19 15 1 29 -2 33
-8 7 -11 54 -3 70 11 26 24 58 -13 59 -71 1 -43 85 -64 108 -27 5 8 14 5 30
-10 20 -19 25 -20 37 -6 11 12 15 13 22 2 6 -11 11 -10 23 6 14 20 14 20 43
-1 15 -11 36 -23 46 -27 18 -7 24 -47 7 -47 -5 0 2 -11 16 -25 28 -29 46 -31
67 -10 19 18 67 31 67 17 0 -5 14 -15 31 -21 25 -8 30 -15 26 -31 -6 -23 22
-48 53 -46 26 1 27 20 1 24 -11 2 -22 10 -25 19 -9 22 12 12 82 -41 33 -25 65
-46 72 -46 6 0 8 -5 4 -12 -5 -8 2 -9 24 -5 23 5 34 2 40 -9 7 -13 13 -14 30
-5 14 8 34 8 69 0 50 -11 196 -13 246 -3 27 6 28 4 22 -17 -7 -25 -66 -117
-99 -156 -11 -12 -36 -48 -58 -79 -37 -55 -47 -84 -29 -84 20 0 171 165 171
187 0 7 3 13 8 13 8 0 28 42 37 81 9 36 51 73 102 89 61 19 73 6 73 -79 0 -36
5 -100 10 -141 14 -102 30 -407 31 -578 1 -138 1 -140 -40 -258 -35 -101 -39
-124 -32 -154 5 -19 15 -78 21 -130 13 -100 47 -262 58 -270 21 -16 48 -101
57 -180 5 -44 12 -60 37 -80 33 -29 62 -123 78 -260 5 -41 13 -95 19 -120 5
-25 12 -72 15 -105 3 -33 12 -78 20 -100 20 -53 20 -75 -1 -90 -15 -11 -10
-40 6 -30 13 8 40 -65 51 -140 6 -38 19 -119 30 -180 11 -60 25 -139 31 -175
6 -36 13 -73 16 -82 4 -17 92 -18 1664 -18 l1659 0 -1 1638 c0 922 -4 1628 -9
1617 -5 -11 -9 -14 -9 -7 -1 19 -26 -6 -35 -35 -4 -11 -16 -29 -28 -39 -20
-19 -21 -19 -13 6 4 14 12 27 16 28 5 2 9 12 9 22 0 10 16 32 35 49 l35 30 0
3076 0 3075 -29 41 c-17 22 -37 63 -46 90 -16 46 -19 49 -51 49 -29 0 -34 -3
-34 -24 0 -25 -78 -147 -130 -204 -40 -43 -93 -69 -176 -87 -115 -24 -163 -20
-240 21 -125 66 -156 103 -199 237 l-19 57 -3256 0 -3256 0 -30 -62 c-41 -89
-150 -197 -237 -238 -102 -47 -146 -52 -207 -24 -91 42 -117 69 -131 132 -6
31 -9 87 -7 124 l5 68 -798 0 -799 0 0 -4820z m5289 3958 c-3 -26 1 -39 11
-33 13 8 13 -1 0 -26 -6 -11 -7 -19 -2 -19 6 0 13 10 17 23 4 13 8 17 12 10 2
-7 12 -13 21 -13 12 0 10 -6 -9 -26 l-24 -26 25 7 c14 4 29 11 35 16 5 5 15 9
23 9 9 0 7 -9 -9 -31 -28 -39 -13 -60 25 -35 51 33 99 10 55 -26 l-24 -20 34
6 c31 6 33 4 29 -19 -5 -26 7 -31 71 -25 18 1 22 -2 18 -14 -6 -16 2 -20 33
-17 12 1 11 -1 -3 -12 -16 -13 -15 -15 11 -26 16 -7 42 -9 58 -6 28 6 28 6 7
-7 -16 -10 -20 -17 -13 -28 8 -12 11 -13 19 -1 7 11 13 10 35 -4 14 -10 35
-15 46 -12 11 3 23 1 26 -4 3 -5 0 -9 -7 -9 -10 0 -10 -3 -2 -11 6 -6 51 -12
102 -13 50 0 91 -4 91 -7 0 -4 33 -7 73 -7 141 0 157 -1 157 -12 0 -6 18 1 40
15 24 15 46 22 56 18 19 -7 54 -39 54 -49 0 -6 100 -139 130 -171 11 -12 20
-25 20 -28 0 -8 63 -89 73 -93 4 -2 7 -10 7 -18 0 -8 4 -14 10 -14 5 0 13 -12
17 -27 3 -16 19 -45 35 -67 15 -21 28 -51 28 -65 0 -14 7 -35 15 -45 8 -11 15
-35 15 -53 0 -19 9 -53 21 -76 12 -23 25 -55 29 -72 5 -16 17 -55 29 -85 11
-30 34 -125 51 -210 17 -85 36 -157 41 -161 6 -3 9 -25 8 -48 -2 -22 2 -46 9
-53 7 -7 12 -17 12 -24 0 -16 -39 -25 -60 -14 -17 9 -101 -10 -124 -29 -6 -4
-28 -11 -48 -15 -21 -4 -49 -17 -62 -29 -13 -12 -34 -29 -45 -37 -12 -8 -21
-20 -21 -27 0 -7 -7 -13 -15 -13 -8 0 -15 -7 -15 -15 0 -8 -4 -15 -10 -15 -5
0 -10 -6 -10 -14 0 -7 -7 -27 -15 -42 -16 -31 -20 -58 -7 -52 114 50 352 176
352 185 0 7 9 13 19 13 11 0 23 5 26 10 9 14 27 1 21 -15 -3 -9 4 -15 17 -17
38 -5 47 -110 21 -243 -9 -44 -18 -95 -21 -113 -3 -18 -9 -35 -14 -38 -19 -11
2 -169 34 -264 8 -25 17 -54 19 -65 3 -16 17 -21 100 -31 53 -7 116 -21 140
-32 45 -20 144 -113 154 -144 3 -10 9 -18 14 -18 4 0 18 -19 29 -43 18 -36 21
-62 21 -158 0 -112 -1 -117 -31 -165 -18 -27 -51 -71 -75 -98 -24 -26 -44 -54
-44 -61 0 -17 -84 -51 -148 -59 -91 -12 -98 -17 -121 -93 -11 -37 -28 -104
-37 -148 -9 -44 -22 -99 -30 -123 -22 -67 -21 -69 54 -76 148 -14 148 -14 233
-90 23 -22 36 -41 33 -50 -7 -18 -162 -56 -225 -56 -24 0 -68 9 -97 20 -29 11
-56 20 -61 20 -4 0 -18 -27 -30 -60 -12 -33 -26 -60 -32 -60 -5 0 -9 -13 -9
-30 0 -23 -4 -30 -20 -30 -11 0 -20 -7 -20 -15 0 -8 -4 -15 -9 -15 -5 0 -14
-12 -20 -27 -35 -85 -67 -114 -117 -106 -35 6 -36 5 -23 -17 11 -18 11 -24 2
-27 -7 -3 -13 -11 -13 -19 0 -8 -6 -14 -13 -14 -24 0 -44 -65 -66 -220 -12
-81 -19 -100 -37 -100 -14 0 -16 -5 -18 -50 -1 -15 -7 -25 -16 -25 -16 0 -34
-78 -19 -83 15 -6 10 -22 -6 -22 -8 0 -19 -9 -25 -20 -13 -24 -2 -50 12 -29 5
9 6 3 2 -16 -4 -16 -10 -32 -14 -35 -4 -3 -9 -14 -11 -24 -5 -24 -29 -34 -29
-12 0 18 -15 21 -25 6 -10 -17 -25 -11 -35 13 -8 20 -9 19 -9 -12 -1 -28 -3
-32 -16 -21 -13 11 -13 8 -4 -17 6 -20 7 -38 0 -56 -13 -34 -30 -35 -23 -2 5
29 -15 35 -25 8 -11 -29 -55 -93 -64 -93 -5 0 -9 13 -9 28 0 38 -11 47 -26 21
-10 -20 -11 -19 -10 12 1 19 -3 36 -8 39 -12 7 -17 -62 -5 -76 6 -7 -3 -25
-25 -50 l-33 -38 -7 38 c-5 27 -11 36 -22 32 -8 -3 -21 -9 -30 -12 -10 -4 -15
-2 -14 7 6 37 -1 80 -10 74 -6 -4 -10 -14 -9 -23 1 -10 1 -24 0 -32 -1 -13 -2
-13 -11 0 -8 12 -10 10 -10 -10 0 -17 -3 -21 -9 -12 -12 19 -6 129 8 146 10
12 9 20 -3 43 -14 25 -15 26 -16 6 0 -28 -17 -39 -24 -16 -3 10 -3 -4 -1 -31
3 -27 2 -47 -1 -43 -4 3 -13 0 -21 -8 -8 -8 -18 -15 -23 -15 -16 0 -31 58 -25
96 7 36 6 38 -8 19 -8 -11 -17 -29 -20 -40 -4 -11 -4 9 -1 45 3 36 10 70 16
77 15 19 27 82 17 89 -20 12 -48 -9 -63 -47 -19 -46 -21 -73 -5 -63 18 11 -1
-37 -24 -60 -16 -17 -19 -18 -14 -4 11 31 -11 29 -34 -2 -28 -37 -42 -39 -29
-4 6 14 10 33 9 42 0 13 -2 14 -6 2 -10 -24 -41 -52 -51 -46 -6 3 -15 -8 -21
-24 -17 -49 -30 -34 -15 17 8 25 29 61 47 80 19 18 40 45 48 60 8 16 18 31 24
35 5 4 6 8 2 8 -5 0 -1 10 7 22 18 25 20 38 7 38 -5 0 -11 -9 -14 -20 -3 -13
-14 -20 -29 -20 -18 0 -30 -10 -44 -35 -10 -19 -23 -35 -27 -35 -5 0 -7 -10
-4 -21 4 -16 3 -19 -5 -11 -16 16 -36 3 -32 -21 2 -12 2 -16 -2 -9 -3 6 -11
12 -17 12 -6 0 -19 7 -29 16 -17 16 -17 18 8 40 14 13 29 24 34 24 4 0 6 8 4
18 -3 9 4 27 16 40 11 12 16 22 10 22 -7 0 -9 12 -4 35 4 22 2 35 -5 35 -6 0
-8 -7 -4 -17 4 -10 2 -14 -4 -10 -6 4 -14 1 -17 -5 -5 -10 -7 -10 -12 0 -8 17
-21 15 -28 -4 -8 -21 23 -45 49 -38 17 5 17 4 -3 -11 -13 -9 -26 -14 -29 -11
-4 3 -13 0 -22 -8 -9 -7 -28 -16 -43 -20 -24 -5 -28 -3 -28 16 0 12 10 32 22
45 14 15 21 34 20 52 -1 16 5 34 13 41 8 7 15 21 15 32 0 20 -12 17 -55 -16
-16 -12 -17 -17 -8 -27 9 -9 10 -16 1 -26 -6 -7 -12 -30 -14 -49 -2 -20 -9
-43 -16 -51 -22 -27 -27 27 -6 65 18 33 16 78 -3 67 -5 -4 -9 3 -9 15 0 12 5
18 10 15 9 -5 9 5 1 44 -1 2 -10 -7 -21 -20 l-20 -24 6 30 c15 72 15 100 0
120 -16 20 -16 20 -31 1 -14 -19 -15 -19 -22 2 l-8 22 -28 -25 c-16 -16 -27
-21 -28 -13 0 7 -5 -2 -10 -20 -7 -23 -15 -32 -25 -28 -10 4 -14 -2 -14 -19 0
-24 -30 -42 -49 -31 -13 8 -51 -56 -51 -84 0 -13 -7 -31 -16 -41 -9 -10 -18
-37 -21 -61 -3 -24 -12 -49 -21 -55 -9 -7 -13 -13 -9 -13 4 0 2 -12 -3 -26 -7
-18 -7 -30 0 -39 7 -9 6 -16 -5 -25 -8 -7 -15 -22 -15 -33 0 -21 0 -21 16 1 8
12 24 22 35 22 10 0 19 7 19 15 0 8 5 15 10 15 6 0 10 -8 10 -19 0 -10 9 -25
21 -32 17 -12 18 -17 7 -31 -7 -9 -26 -20 -43 -23 -23 -5 -26 -4 -15 4 13 9
12 11 -5 10 -33 -1 -50 -13 -52 -35 -2 -17 2 -21 17 -17 16 4 20 0 20 -21 0
-14 -5 -26 -11 -26 -6 0 -9 -6 -6 -12 2 -7 9 -12 15 -11 5 1 12 -11 16 -28 3
-17 10 -28 16 -24 7 4 7 12 0 24 -10 19 4 41 25 41 6 0 22 11 35 25 13 14 29
25 36 25 15 0 28 -34 15 -38 -6 -2 -11 -8 -11 -13 0 -6 5 -7 10 -4 6 3 10 0
10 -7 0 -7 -9 -19 -21 -26 -16 -11 -18 -16 -9 -28 7 -8 23 -14 35 -14 26 0 41
-16 43 -47 1 -25 -17 -30 -36 -11 -10 10 -14 10 -20 0 -8 -11 -44 -18 -67 -12
-31 8 -57 -3 -73 -30 -9 -16 -23 -32 -30 -35 -8 -3 -10 0 -6 8 6 9 4 9 -8 -1
-13 -10 -19 -10 -32 3 -22 22 -20 42 4 48 11 3 20 12 20 21 0 22 -17 20 -23
-1 -4 -16 -6 -15 -12 4 -4 12 -13 24 -21 27 -18 7 -18 36 -1 36 9 0 12 10 9
30 -3 18 0 30 7 30 6 0 11 14 11 31 0 23 -5 32 -20 36 -25 7 -19 39 12 66 15
13 18 20 10 30 -6 7 -9 31 -7 53 4 35 3 36 -4 9 -5 -16 -9 -26 -10 -21 0 5
-16 -8 -35 -29 -19 -21 -34 -42 -33 -46 1 -3 -11 -21 -26 -39 -21 -23 -26 -35
-18 -43 8 -8 11 -7 11 2 0 8 6 11 17 7 9 -4 20 -1 24 6 6 9 13 8 28 -6 15 -14
20 -30 19 -58 -1 -21 -5 -41 -10 -44 -4 -3 -8 -18 -8 -35 0 -16 -4 -29 -9 -29
-5 0 -22 -3 -38 -6 -23 -4 -32 -2 -37 11 -3 10 -2 23 2 29 10 12 25 106 17
106 -2 0 -16 -11 -31 -25 -31 -29 -44 -32 -44 -8 0 14 -3 13 -20 -5 -25 -27
-60 -29 -60 -4 0 14 -2 15 -10 2 -13 -20 -13 -4 0 21 14 25 28 24 32 -3 3 -21
5 -20 21 10 20 37 16 52 -12 45 -10 -3 -22 0 -25 6 -4 6 5 13 19 17 23 6 26
10 20 33 -10 42 -22 46 -30 10 -9 -38 -30 -63 -46 -54 -6 4 -9 16 -6 26 5 19
-2 23 -35 20 -10 -1 -18 3 -18 8 0 14 -37 14 -45 1 -11 -18 -22 -10 -29 22 -8
40 -20 28 -21 -21 -1 -21 -8 -46 -17 -55 -22 -22 -31 -20 -23 4 5 14 2 20 -9
20 -9 0 -16 7 -16 15 0 9 -6 12 -15 9 -20 -8 -19 3 5 33 11 14 20 34 20 44 0
11 4 19 9 19 5 0 11 10 13 23 4 28 22 29 26 0 2 -12 11 -27 20 -35 11 -9 14
-10 8 0 -11 19 3 35 19 22 11 -9 17 -5 30 19 8 17 22 31 29 31 13 0 69 100 61
109 -3 2 -11 -2 -20 -9 -13 -11 -15 -9 -15 11 -1 23 -1 23 -14 6 -10 -13 -16
-15 -21 -6 -4 6 -3 14 2 18 6 3 8 21 6 38 -4 28 -8 31 -23 23 -10 -6 -20 -20
-22 -32 -2 -13 -11 -24 -20 -26 -22 -4 -24 23 -3 32 15 5 20 42 9 70 -7 18
-34 10 -34 -11 0 -13 -3 -13 -15 -3 -12 10 -16 8 -24 -11 -10 -24 -10 -24 -10
4 -1 15 -5 27 -11 27 -5 0 -7 14 -4 33 4 22 3 28 -4 18 -8 -11 -11 -9 -17 8
-11 37 -25 23 -26 -26 0 -27 -3 -43 -5 -36 -3 7 -12 9 -20 6 -10 -4 -14 3 -14
23 -1 37 -27 75 -39 56 -11 -18 -35 41 -28 69 4 16 3 18 -9 8 -11 -9 -14 -9
-14 0 0 7 -5 9 -10 6 -6 -4 -10 -14 -9 -23 1 -10 1 -27 0 -40 -1 -19 -4 -21
-20 -13 -10 6 -21 7 -25 4 -3 -3 -6 8 -6 26 0 18 4 30 9 26 5 -3 12 3 16 14 3
10 13 18 23 17 12 -1 18 8 20 33 2 21 0 31 -7 27 -7 -4 -8 -1 -5 9 7 18 -14
47 -29 38 -5 -3 -16 2 -24 12 -12 18 -13 18 -13 -3 0 -13 6 -22 15 -22 21 0
19 -16 -6 -56 -15 -25 -19 -42 -14 -65 7 -29 6 -30 -15 -19 -12 7 -19 18 -16
26 3 7 0 17 -7 21 -19 13 -35 67 -26 91 5 14 4 22 -2 22 -6 0 -9 9 -6 19 7 27
-22 36 -39 14 -15 -20 -15 -19 -17 47 -2 33 -6 46 -19 48 -12 2 -17 -5 -20
-30 -3 -38 -18 -41 -35 -8 -6 13 -19 27 -27 32 -13 7 -15 22 -12 72 3 34 8 70
11 78 7 16 -30 45 -49 40 -5 -2 -13 3 -17 10 -6 9 -9 7 -9 -7 0 -15 -2 -17 -9
-6 -6 9 -11 10 -15 2 -12 -19 -35 -12 -50 17 -16 28 -18 25 -20 -42 0 -24 -7
-41 -15 -44 -11 -4 -13 4 -8 36 5 28 3 42 -5 44 -8 3 -12 21 -11 46 2 40 -10
56 -20 30 -3 -7 -6 7 -6 32 -1 35 4 49 22 65 27 23 38 57 26 76 -7 11 -9 10
-9 -3 0 -10 -4 -18 -9 -18 -15 0 -20 41 -8 62 10 16 9 22 -5 31 -10 9 -15 23
-12 42 4 28 0 23 -13 -15 -3 -10 -9 -4 -18 18 -8 17 -19 32 -25 32 -12 0 -14
-57 -2 -62 11 -4 24 -68 14 -68 -4 0 -14 5 -22 10 -11 7 -20 4 -32 -13 l-17
-22 -7 33 c-4 18 -11 35 -15 38 -12 7 -11 51 1 59 6 3 10 15 10 26 0 13 -4 18
-12 13 -8 -5 -9 4 -5 34 4 24 3 43 -3 47 -5 3 -10 19 -10 34 0 15 -9 36 -20
46 -11 10 -18 25 -16 34 3 9 8 35 11 59 6 34 4 42 -9 42 -9 0 -16 4 -16 9 0
12 19 25 26 18 9 -8 32 -131 27 -139 -2 -5 0 -8 5 -8 5 0 9 -20 9 -45 0 -49 9
-68 22 -46 7 10 10 9 16 -8 3 -11 15 -22 26 -22 10 -1 24 -3 29 -4 6 -1 17 -3
25 -4 8 0 15 -8 15 -16 0 -8 6 -15 14 -15 29 0 21 27 -21 66 l-43 41 6 -34 c5
-28 4 -32 -10 -27 -9 3 -16 12 -16 19 0 8 -7 21 -16 30 -19 19 -21 119 -3 141
9 11 9 21 -1 43 -6 16 -9 38 -6 49 4 11 2 23 -4 27 -5 3 -10 19 -10 34 0 37
-11 46 -25 21 -11 -20 -11 -20 -28 0 -9 11 -13 20 -8 20 5 0 11 11 13 25 4 17
1 25 -9 25 -9 0 -3 12 16 33 33 35 36 42 21 52 -5 3 -10 18 -9 33 0 15 3 21 6
15 2 -7 10 -13 17 -13 7 0 18 -15 24 -32 10 -29 11 -30 6 -5 -3 17 -1 26 5 23
5 -4 13 4 16 16 4 13 14 30 21 39 16 18 19 59 9 101 -4 15 -4 35 -1 45 6 15 8
15 16 3 9 -13 10 -13 10 0 0 11 2 12 8 3 4 -7 8 7 9 30 0 23 8 80 17 127 17
89 20 213 5 204 -5 -3 -12 1 -15 10 -3 9 -12 12 -22 8 -15 -5 -15 -3 -4 11 8
9 11 26 8 39 -3 13 -3 17 0 11 11 -25 19 -12 21 37 2 27 -2 52 -7 55 -6 3 -10
35 -10 71 0 41 -4 63 -10 59 -13 -8 -13 30 0 53 20 36 69 150 75 175 4 15 12
24 17 21 5 -3 9 2 8 12 -4 38 0 46 20 41 11 -3 20 -1 20 5 0 5 4 6 10 3 6 -4
6 3 0 21 -6 15 -8 29 -5 32 3 3 5 0 5 -6 0 -14 22 -12 32 3 12 16 9 27 -4 19
-6 -4 -3 4 8 18 11 16 22 22 26 15 7 -12 29 7 48 43 7 14 30 48 51 76 41 53
46 64 29 64 -5 0 -10 -7 -10 -15 0 -8 -7 -15 -15 -15 -17 0 -61 -65 -71 -104
-6 -27 -24 -26 -24 0 0 8 4 13 9 10 5 -3 8 12 7 34 -1 28 -6 40 -16 41 -10 0
-11 2 -2 6 6 2 12 11 12 19 0 8 4 14 9 14 5 0 14 13 20 29 14 33 67 75 86 67
7 -2 16 2 19 10 4 11 1 14 -13 9 -11 -3 -22 -1 -25 4 -10 16 -14 91 -5 91 5 0
9 7 9 15 0 21 -17 19 -25 -4 -3 -10 -15 -27 -27 -37 -24 -21 -26 -28 19 63 12
24 17 45 12 49 -16 10 -10 24 9 17 13 -5 14 -3 6 6 -9 10 -17 10 -32 2 -29
-16 -36 2 -17 40 9 17 14 33 11 37 -3 3 -6 0 -6 -6 0 -7 -4 -12 -10 -12 -15 0
-12 31 4 49 10 11 12 21 6 31 -8 13 -10 12 -10 -3 0 -10 -6 -20 -14 -23 -8 -3
-11 -15 -8 -30 2 -14 0 -24 -7 -24 -7 0 -26 -22 -43 -50 -29 -47 -61 -72 -38
-31 5 11 10 31 10 45 0 14 5 26 10 26 6 0 10 7 10 15 0 20 -10 19 -26 -2 -12
-17 -13 -17 -14 -1 0 9 5 20 10 23 6 3 10 16 10 29 0 12 3 26 7 30 8 7 15 40
17 73 1 11 4 19 8 17 12 -8 60 59 55 78 -3 10 0 18 7 18 14 0 15 28 2 49 -5 7
-4 17 3 24 7 7 7 14 0 23 -7 8 -7 14 1 19 5 3 10 15 10 26 0 19 24 64 45 84 6
6 19 21 30 35 l20 24 -27 -17 c-37 -23 -38 -1 -3 41 14 17 25 37 25 46 0 9 9
21 20 28 11 7 20 18 20 25 0 7 12 13 26 13 24 0 26 3 22 36 -4 35 -4 35 13 13
l17 -22 6 21 c4 12 13 22 19 22 7 0 19 9 27 20 8 11 20 20 26 20 7 0 15 14 19
30 4 17 10 30 14 30 18 0 20 -15 6 -37 -12 -17 -12 -23 -3 -23 7 0 18 9 23 21
12 25 75 61 111 64 6 0 18 6 27 14 9 7 21 10 27 6 7 -4 18 2 26 14 17 24 39
28 30 6 -3 -8 -1 -15 5 -15 5 0 12 7 15 15 4 8 11 15 17 15 8 0 8 -3 0 -11 -9
-9 -8 -15 2 -25 20 -21 31 -17 58 18 23 28 28 30 49 21 18 -9 19 -12 6 -12
-12 -1 -18 -9 -17 -23 1 -19 2 -19 6 -5 3 11 10 16 20 13 8 -3 19 -6 24 -6 5
0 9 -7 9 -16 0 -14 -3 -14 -15 -4 -12 10 -15 10 -15 -3 0 -8 6 -18 13 -20 8
-4 7 -6 -3 -7 -18 -2 -77 -70 -60 -70 6 0 23 9 37 19 19 16 34 19 74 14 33 -4
49 -2 49 6 0 6 -14 11 -31 11 -27 0 -30 2 -19 15 9 11 16 12 26 4 7 -6 18 -8
24 -4 5 3 10 -2 11 -12 0 -10 3 -13 6 -5 2 6 17 12 31 12 26 -1 27 -1 7 -16
-19 -15 -19 -16 13 -12 17 3 32 0 32 -5 0 -5 11 -2 24 6 13 9 34 13 47 11 17
-4 20 -3 11 4 -10 6 5 11 48 16 34 4 85 17 114 30 28 12 57 21 64 19 6 -3 12
0 12 7 0 6 4 9 10 5 5 -3 19 4 30 15 18 18 18 21 5 27 -14 5 -14 8 3 27 28 31
35 66 12 66 -10 0 -20 -6 -23 -12 -3 -7 -5 -4 -6 7 -3 58 -6 71 -13 76 -5 3
-2 25 8 47 16 41 26 54 23 30z m-39 -82 c0 -21 -80 -126 -96 -126 -9 0 -3 10
21 36 25 27 25 55 0 34 -9 -8 -14 -5 -18 10 -6 23 6 31 48 34 14 0 25 4 25 9
0 4 5 7 10 7 6 0 10 -2 10 -4z m10 -47 c0 -5 -4 -9 -10 -9 -5 0 -10 7 -10 16
0 8 5 12 10 9 6 -3 10 -10 10 -16z m-140 -39 c0 -5 -5 -10 -11 -10 -5 0 -7 5
-4 10 3 6 8 10 11 10 2 0 4 -4 4 -10z m140 -5 c0 -7 -30 -13 -34 -7 -3 4 4 9
15 9 10 1 19 0 19 -2z m-120 -60 c-7 -8 -18 -15 -24 -15 -6 0 -2 7 8 15 25 19
32 19 16 0z m60 -30 c-19 -20 -44 -35 -57 -35 -33 0 -28 17 8 25 17 4 28 9 25
13 -7 6 46 41 53 35 3 -2 -11 -19 -29 -38z m-107 -10 c-10 -7 -20 -12 -21 -10
-7 7 23 33 31 28 5 -3 0 -11 -10 -18z m12 -35 c-3 -5 -13 -10 -21 -10 -8 0
-12 5 -9 10 3 6 13 10 21 10 8 0 12 -4 9 -10z m1155 -60 c0 -5 -8 -10 -17 -10
-15 0 -16 2 -3 10 19 12 20 12 20 0z m-2263 -172 c-3 -8 -6 -5 -6 6 -1 11 2
17 5 13 3 -3 4 -12 1 -19z m2741 -299 c7 -12 11 -24 8 -27 -6 -6 -35 27 -36
41 0 14 15 7 28 -14z m38 -100 c5 -49 -8 -29 -20 31 -5 25 -3 31 5 23 6 -6 13
-30 15 -54z m-5559 -373 c7 -6 30 -24 52 -41 21 -16 48 -44 60 -61 11 -16 31
-41 43 -54 21 -23 23 -34 22 -140 0 -97 -4 -122 -22 -159 -12 -25 -22 -49 -22
-53 0 -18 -79 -124 -120 -162 -47 -44 -84 -55 -191 -57 -92 -3 -128 14 -165
77 -35 60 -64 164 -64 232 0 56 17 141 31 157 5 5 9 15 9 23 0 43 127 180 202
218 80 41 134 47 165 20z m2773 5 c0 -5 -7 -11 -15 -15 -15 -5 -20 5 -8 17 9
10 23 9 23 -2z m-164 -28 c-10 -10 -19 5 -10 18 6 11 8 11 12 0 2 -7 1 -15 -2
-18z m41 5 c-3 -8 -6 -5 -6 6 -1 11 2 17 5 13 3 -3 4 -12 1 -19z m-224 -41 c3
-8 2 -20 -3 -27 -6 -10 -9 -8 -13 6 -4 16 -5 16 -6 -3 -1 -30 -21 -40 -21 -11
0 37 32 63 43 35z m197 -56 c0 -5 -7 -17 -16 -25 -8 -9 -11 -16 -5 -16 15 0
14 -19 -2 -34 -16 -16 -37 -9 -37 12 0 15 2 15 10 2 5 -8 10 -10 11 -5 3 24 5
31 12 53 8 22 27 31 27 13z m50 -12 c0 -6 -4 -7 -10 -4 -5 3 -10 11 -10 16 0
6 5 7 10 4 6 -3 10 -11 10 -16z m-370 -13 c0 -3 -4 -8 -10 -11 -5 -3 -10 -1
-10 4 0 6 5 11 10 11 6 0 10 -2 10 -4z m380 -20 c0 -3 -4 -8 -10 -11 -5 -3
-10 -1 -10 4 0 6 5 11 10 11 6 0 10 -2 10 -4z m-20 -41 c0 -5 -5 -3 -10 5 -8
13 -10 13 -11 -2 -1 -10 -3 -22 -4 -28 -1 -5 -3 -17 -4 -26 0 -8 -5 -13 -11
-9 -5 3 -7 12 -3 20 11 31 -7 13 -24 -22 -9 -21 -20 -40 -24 -43 -4 -3 -9 -16
-11 -30 -4 -22 -6 -23 -12 -7 -6 12 -3 24 9 37 10 11 15 26 11 35 -4 10 -2 14
6 9 7 -5 9 2 5 22 -3 16 -4 24 -1 17 3 -8 17 1 36 23 23 26 33 32 39 22 5 -7
9 -17 9 -23z m-263 -7 c-3 -8 -6 -5 -6 6 -1 11 2 17 5 13 3 -3 4 -12 1 -19z
m244 -82 c-6 -8 -13 -27 -15 -42 -2 -16 -13 -52 -24 -81 -11 -29 -17 -55 -13
-59 3 -4 0 -4 -6 0 -9 5 -13 1 -13 -11 0 -11 -7 -28 -16 -39 -14 -18 -15 -17
-9 16 3 19 7 46 9 60 7 55 7 56 15 35 7 -17 9 -15 15 15 14 70 39 120 58 120
6 0 6 -6 -1 -14z m4119 -16 c48 -11 64 -21 123 -81 37 -38 67 -76 67 -84 0 -8
4 -15 9 -15 5 0 19 -15 30 -34 18 -29 21 -49 21 -146 0 -98 -3 -118 -22 -153
-13 -23 -30 -48 -38 -57 -8 -9 -33 -38 -55 -64 -47 -57 -66 -67 -168 -95 -113
-31 -154 -28 -245 16 -113 55 -150 97 -189 215 -18 53 -33 110 -33 126 0 34
33 146 55 189 8 15 15 33 15 40 0 21 94 95 165 130 64 32 76 34 140 30 39 -3
95 -10 125 -17z m-4093 -12 c-3 -8 -6 -5 -6 6 -1 11 2 17 5 13 3 -3 4 -12 1
-19z m-1497 -8 c0 -5 -7 -10 -16 -10 -8 0 -12 5 -9 10 3 6 10 10 16 10 5 0 9
-4 9 -10z m1170 -20 c0 -5 -5 -10 -11 -10 -5 0 -7 5 -4 10 3 6 8 10 11 10 2 0
4 -4 4 -10z m190 0 c0 -5 -4 -10 -10 -10 -5 0 -10 5 -10 10 0 6 5 10 10 10 6
0 10 -4 10 -10z m-1358 -61 c-2 -7 3 -16 9 -20 10 -6 10 -13 1 -34 -7 -16 -9
-32 -4 -39 5 -6 8 -26 6 -44 -1 -18 2 -35 7 -38 5 -3 7 -10 3 -15 -3 -5 -7
-24 -9 -41 -5 -37 -7 -39 -23 -29 -7 4 -14 23 -16 43 -2 19 -6 40 -10 47 -10
16 -5 163 7 179 6 8 6 12 -2 12 -6 0 -11 5 -11 11 0 7 8 6 23 -4 12 -8 21 -21
19 -28z m1338 17 c0 -13 -7 -27 -16 -30 -22 -8 -24 -5 -17 24 6 22 7 23 14 4
7 -18 8 -17 8 4 1 30 11 28 11 -2z m-313 -48 c-3 -8 -6 -5 -6 6 -1 11 2 17 5
13 3 -3 4 -12 1 -19z m307 -45 c-3 -45 -1 -52 6 -33 8 21 9 19 4 -12 -3 -25
-1 -38 7 -38 8 0 9 -11 5 -32 -10 -49 -26 -58 -21 -12 l4 39 -11 -37 c-6 -21
-17 -38 -25 -38 -7 0 -13 2 -13 4 0 2 -3 13 -6 23 -5 15 -4 16 6 3 10 -13 11
-13 6 2 -4 15 32 188 40 188 1 0 1 -26 -2 -57z m3182 -10 c-10 -10 -19 5 -10
18 6 11 8 11 12 0 2 -7 1 -15 -2 -18z m-3329 -15 c-3 -8 -6 -5 -6 6 -1 11 2
17 5 13 3 -3 4 -12 1 -19z m94 -29 l-10 -24 0 26 c-1 14 2 29 6 33 12 12 14
-9 4 -35z m-14 -51 c-3 -8 -6 -5 -6 6 -1 11 2 17 5 13 3 -3 4 -12 1 -19z m-32
-47 c-3 -12 -10 -21 -15 -21 -4 0 -3 11 3 24 14 29 22 27 12 -3z m92 -53 c-3
-7 -5 -2 -5 12 0 14 2 19 5 13 2 -7 2 -19 0 -25z m-1295 -13 c-2 -14 -9 -25
-14 -25 -6 0 -7 7 -4 16 3 9 6 20 6 25 0 5 4 9 9 9 4 0 6 -11 3 -25z m-753
-182 c6 -21 11 -60 10 -88 0 -60 -31 -181 -44 -178 -21 5 -32 167 -16 219 5
16 12 41 15 57 9 38 23 34 35 -10z m344 -320 c30 -10 45 -19 35 -21 -19 -4
-25 -32 -7 -32 6 0 8 -9 3 -22 -6 -20 -5 -21 8 -10 13 10 17 10 21 -2 17 -43
-215 -85 -302 -55 -32 11 -39 31 -21 59 5 8 13 15 17 15 5 0 15 6 23 13 39 35
108 71 138 71 18 1 57 -7 85 -16z m1511 -448 c3 -8 1 -15 -4 -15 -6 0 -10 7
-10 15 0 8 2 15 4 15 2 0 6 -7 10 -15z m36 -25 c0 -5 -4 -10 -10 -10 -5 0 -10
5 -10 10 0 6 5 10 10 10 6 0 10 -4 10 -10z m-10 -40 c0 -5 -5 -12 -10 -15 -6
-4 -8 -11 -5 -16 4 -5 2 -9 -4 -9 -12 0 -24 36 -16 49 6 11 35 3 35 -9z m5821
-74 c61 -22 106 -62 176 -153 l58 -78 0 -126 0 -126 -36 -54 c-20 -30 -62 -79
-92 -110 -49 -48 -67 -59 -129 -77 -40 -11 -101 -24 -136 -28 -55 -6 -69 -3
-125 21 -121 54 -156 83 -192 160 -62 134 -69 166 -52 248 32 153 67 214 160
276 95 64 123 72 227 67 52 -2 116 -11 141 -20z m-8849 -23 c115 -79 153 -164
152 -335 -1 -59 -6 -113 -11 -120 -6 -7 -13 -26 -17 -43 -9 -36 -58 -124 -92
-165 -38 -44 -209 -84 -255 -59 -56 30 -126 142 -153 246 -40 154 -3 309 101
427 18 20 35 36 39 36 3 0 20 12 37 26 29 24 36 26 97 20 46 -5 76 -14 102
-33z m3073 -243 c3 -5 1 -10 -4 -10 -6 0 -11 5 -11 10 0 6 2 10 4 10 3 0 8 -4
11 -10z m4357 -74 c56 -20 118 -77 179 -166 l44 -65 0 -125 c0 -124 0 -125
-32 -170 -17 -25 -44 -59 -60 -77 -15 -17 -40 -45 -55 -62 -34 -37 -104 -60
-213 -68 -70 -5 -87 -3 -130 17 -28 12 -52 25 -55 29 -3 3 -22 15 -44 26 -45
23 -75 66 -116 170 -42 105 -41 167 4 279 37 91 54 113 126 163 104 71 117 75
215 70 50 -3 111 -13 137 -21z m-4417 -59 c7 -8 11 -25 8 -41 l-5 -27 -14 27
c-23 44 -17 68 11 41z m-25 -67 c0 -5 -2 -10 -4 -10 -3 0 -8 5 -11 10 -3 6 -1
10 4 10 6 0 11 -4 11 -10z m-837 -104 c94 -18 126 -35 195 -100 98 -92 116
-122 119 -190 1 -34 5 -81 9 -106 19 -116 2 -158 -111 -278 -78 -84 -124 -102
-270 -109 l-100 -5 -45 35 c-25 19 -59 54 -75 78 -16 24 -36 53 -46 64 -9 11
-19 31 -23 45 -4 14 -12 41 -17 60 -10 37 -13 199 -3 223 3 8 -1 21 -9 28 -7
8 -12 19 -10 25 5 14 -24 27 -39 18 -5 -3 -16 2 -24 12 -11 15 -13 16 -8 3 8
-25 -11 -31 -30 -10 -15 16 -14 18 9 31 19 10 25 21 25 49 0 33 -1 34 -14 16
-7 -11 -15 -29 -17 -40 -2 -11 -15 -25 -29 -32 -18 -9 -20 -13 -7 -13 9 0 17
-6 17 -13 0 -7 10 -18 21 -26 18 -11 23 -11 30 1 6 9 9 9 9 1 0 -7 7 -10 15
-7 9 4 15 0 15 -10 0 -19 -50 -22 -83 -5 -27 14 -122 116 -135 144 -30 66 -38
81 -47 88 -5 5 24 6 65 2 111 -9 196 -55 247 -132 23 -34 38 -28 73 27 34 53
99 112 141 129 34 14 66 13 152 -3z m1034 -132 c3 -18 2 -18 -6 1 -8 17 -10
14 -10 -15 -1 -34 -15 -69 -25 -60 -12 13 -9 82 4 90 20 13 35 7 37 -16z
m-1854 -35 c5 -4 12 -58 15 -122 4 -98 2 -125 -17 -184 -11 -39 -28 -76 -36
-83 -8 -7 -15 -20 -15 -29 -1 -9 -10 4 -22 29 -18 37 -22 64 -22 155 -1 94 3
119 23 170 28 69 53 104 60 83 2 -7 8 -16 14 -19z m1757 -26 c0 -5 -5 -15 -10
-23 -8 -12 -10 -11 -10 8 0 12 5 22 10 22 6 0 10 -3 10 -7z m60 -58 c0 -25
-15 -24 -16 1 -1 13 2 21 7 18 5 -3 9 -11 9 -19z m0 -87 c0 -9 -4 -20 -10 -23
-5 -3 -10 -18 -10 -33 0 -34 -19 -68 -20 -37 -1 17 -3 17 -11 -5 -9 -23 -7
-46 7 -84 4 -11 1 -16 -10 -16 -14 0 -15 11 -11 71 2 39 10 95 17 123 11 49
13 52 30 37 10 -8 18 -23 18 -33z m-180 -79 c0 -3 -9 -14 -20 -24 -20 -18 -20
-17 -20 31 l0 49 20 -25 c11 -14 20 -28 20 -31z m226 24 c-10 -10 -19 5 -10
18 6 11 8 11 12 0 2 -7 1 -15 -2 -18z m128 -49 c6 -16 -20 -64 -35 -64 -5 0
-9 9 -9 20 0 11 7 20 15 20 18 0 20 21 3 39 -11 10 -10 11 4 6 9 -4 19 -13 22
-21z m-94 -72 c0 -15 -5 -33 -12 -40 -8 -8 -9 -12 -1 -12 8 0 6 -10 -3 -30 -9
-16 -20 -30 -26 -30 -6 0 -8 12 -4 30 3 17 1 30 -4 30 -6 0 -10 11 -10 25 0
18 4 23 16 18 10 -4 17 1 21 16 8 30 23 26 23 -7z m-1617 -46 c34 -15 57 -31
57 -40 0 -9 6 -16 14 -16 8 0 17 -7 20 -16 8 -20 9 -18 -29 -32 -26 -9 -27
-11 -7 -11 14 -1 22 -7 22 -18 1 -16 2 -16 13 -2 15 20 57 43 57 31 0 -12 -50
-57 -80 -73 -37 -19 -137 -38 -202 -39 -52 0 -59 3 -95 38 -21 20 -52 54 -68
75 l-28 38 26 23 c15 13 27 28 27 34 0 47 174 52 273 8z m1705 16 c2 -7 -3
-12 -12 -12 -9 0 -16 7 -16 16 0 17 22 14 28 -4z m123 -82 c5 0 9 -7 9 -16 0
-14 -3 -14 -15 -4 -8 7 -14 24 -14 39 2 23 2 24 6 4 2 -13 9 -23 14 -23z
m-3502 9 c35 -5 78 -17 95 -26 143 -71 217 -290 172 -505 -35 -161 -118 -235
-272 -241 -53 -2 -66 2 -104 28 -24 17 -63 55 -87 85 -144 183 -130 452 31
614 61 61 65 62 165 45z m1140 0 c58 -12 102 -42 86 -58 -13 -13 -190 -40
-219 -34 -36 8 -66 26 -66 39 0 8 -6 11 -15 8 -11 -5 -13 -2 -9 10 3 9 12 16
19 16 7 0 15 7 19 15 7 18 109 21 185 4z m5157 -45 c-4 -9 -9 -15 -11 -12 -3
3 -3 13 1 22 4 9 9 15 11 12 3 -3 3 -13 -1 -22z m-3051 -5 c4 -12 3 -25 -3
-31 -13 -13 -43 18 -36 37 9 22 32 18 39 -6z m363 -116 c-12 -49 -36 -66 -34
-25 1 15 5 33 10 40 4 7 5 19 2 27 -6 17 16 26 26 10 4 -6 2 -30 -4 -52z
m-2269 8 c12 -16 21 -34 21 -40 0 -6 4 -11 8 -11 14 0 31 -191 22 -250 -12
-84 -20 -103 -36 -89 -8 6 -14 24 -14 40 0 16 -4 29 -9 29 -11 0 -33 59 -26
70 3 4 -1 13 -8 19 -8 6 -12 23 -9 40 2 16 -1 38 -7 48 -13 26 -3 93 15 93 16
0 19 16 4 25 -16 10 -12 55 4 55 8 0 24 -13 35 -29z m2092 -4 c-8 -8 -11 -7
-11 4 0 20 13 34 18 19 3 -7 -1 -17 -7 -23z m3209 -41 c51 -19 87 -53 73 -67
-15 -15 -111 -38 -190 -45 -68 -6 -75 -5 -138 27 -56 28 -85 52 -85 72 0 2 7
4 15 5 8 1 22 3 30 4 8 1 16 7 19 15 8 19 216 11 276 -11z m-3273 -33 c-3 -10
-5 -2 -5 17 0 19 2 27 5 18 2 -10 2 -26 0 -35z m283 -10 c0 -16 3 -39 6 -53 4
-18 1 -16 -10 9 -18 38 -21 71 -6 71 6 0 10 -12 10 -27z m-110 -48 c0 -8 -4
-15 -10 -15 -5 0 -10 7 -10 15 0 8 5 15 10 15 6 0 10 -7 10 -15z m96 -40 c7
-29 1 -41 -15 -30 -14 8 -14 55 -1 55 5 0 12 -11 16 -25z m34 -25 c0 -5 -4
-10 -10 -10 -5 0 -10 5 -10 10 0 6 5 10 10 10 6 0 10 -4 10 -10z m-120 -16 c0
-8 -5 -12 -10 -9 -6 4 -8 11 -5 16 9 14 15 11 15 -7z m135 -21 c-6 -24 -8 -25
-16 -10 -7 12 -6 21 3 31 18 19 22 12 13 -21z m1118 -3 c-7 -28 -13 -25 -13 6
0 14 4 23 9 20 5 -3 7 -15 4 -26z m-88 0 c3 -5 1 -10 -4 -10 -6 0 -11 5 -11
10 0 6 2 10 4 10 3 0 8 -4 11 -10z m-1178 -22 c-3 -8 -6 -5 -6 6 -1 11 2 17 5
13 3 -3 4 -12 1 -19z m1177 -6 c3 -5 -6 -21 -20 -37 -22 -26 -24 -27 -24 -7 0
12 5 22 10 22 6 0 10 7 10 15 0 16 15 20 24 7z m-1209 -22 c3 -6 -1 -13 -10
-16 -19 -8 -30 0 -20 15 8 14 22 14 30 1z m508 -41 c16 -68 13 -109 -9 -109
-12 0 -14 5 -8 18 10 23 6 90 -7 114 -9 16 -8 19 2 16 8 -3 17 -20 22 -39z
m872 -1 c-4 -18 -13 -36 -19 -40 -8 -6 -7 -8 2 -8 14 0 16 -36 2 -45 -15 -9
-18 62 -5 103 11 35 28 26 20 -10z m-1015 -7 c0 -6 -4 -13 -10 -16 -5 -3 -10
1 -10 9 0 9 5 16 10 16 6 0 10 -4 10 -9z m-42 -28 c-2 -9 -8 -18 -15 -20 -7
-3 -9 3 -6 16 6 25 26 28 21 4z m-43 -23 c11 -18 -7 -80 -26 -90 -16 -9 -19
-5 -25 25 -5 27 -2 41 11 55 20 22 31 25 40 10z m288 -12 c-6 -7 -13 -20 -16
-28 -3 -9 -6 -3 -6 13 -1 19 4 27 15 27 12 0 14 -4 7 -12z m47 -18 c0 -5 -5
-10 -11 -10 -5 0 -7 5 -4 10 3 6 8 10 11 10 2 0 4 -4 4 -10z m1220 -36 c0 -14
-4 -23 -10 -19 -6 4 -8 11 -5 16 4 5 1 9 -4 9 -6 0 -11 5 -11 10 0 6 7 10 15
10 9 0 15 -10 15 -26z m-3692 -2 c2 -7 10 -12 18 -12 15 0 19 -16 6 -24 -10
-6 -43 -11 -124 -21 -49 -5 -59 -4 -77 14 -12 12 -25 21 -31 21 -15 0 0 28 18
33 37 10 186 1 190 -11z m3172 8 c0 -5 -7 -10 -16 -10 -8 0 -12 5 -9 10 3 6
10 10 16 10 5 0 9 -4 9 -10z m183 -41 c9 -23 14 -39 10 -35 -3 3 -17 -1 -31
-10 -32 -21 -51 -12 -45 20 3 14 9 26 13 26 5 0 12 9 15 20 10 30 20 24 38
-21z m-1041 -41 c-7 -7 -12 -8 -12 -2 0 6 3 14 7 17 3 4 9 5 12 2 2 -3 -1 -11
-7 -17z m-92 2 c0 -5 -2 -10 -4 -10 -3 0 -8 5 -11 10 -3 6 -1 10 4 10 6 0 11
-4 11 -10z m0 -35 c0 -8 -4 -15 -9 -15 -13 0 -22 16 -14 24 11 11 23 6 23 -9z
m1217 -10 c-7 -13 -14 -20 -15 -14 -5 14 6 39 17 39 5 0 4 -11 -2 -25z m-346
-38 c-10 -9 -11 -8 -5 6 3 10 9 15 12 12 3 -3 0 -11 -7 -18z m-619 -52 c6 -14
15 -25 20 -25 5 0 6 5 2 11 -4 7 2 9 17 7 14 -2 25 -11 27 -22 4 -17 0 -18
-44 -12 -38 5 -46 4 -36 -6 18 -18 15 -25 -12 -30 -25 -5 -36 11 -36 58 0 45
44 59 62 19z m1178 -15 c5 0 10 6 13 13 2 6 8 9 12 5 9 -9 -4 -48 -16 -48 -6
0 -7 4 -4 10 4 6 -9 8 -34 5 -32 -4 -39 -2 -35 9 3 8 11 13 19 10 7 -3 16 3
20 13 8 17 8 17 12 1 3 -10 8 -18 13 -18z m-1330 -6 c0 -8 -5 -12 -10 -9 -6 4
-8 11 -5 16 9 14 15 11 15 -7z m2605 5 c33 -6 73 -18 89 -26 l29 -15 -30 -19
c-50 -31 -152 -59 -219 -59 -34 0 -65 4 -69 9 -3 5 -19 12 -35 16 -96 21 6
102 131 104 25 1 72 -4 104 -10z m-1141 -24 c-4 -8 -10 -15 -15 -15 -5 0 -9 7
-9 15 0 8 7 15 15 15 9 0 12 -6 9 -15z m-1484 -41 c0 -15 -22 -44 -31 -39 -11
7 7 45 21 45 6 0 10 -3 10 -6z m1416 -20 c-4 -9 -9 -15 -11 -12 -3 3 -3 13 1
22 4 9 9 15 11 12 3 -3 3 -13 -1 -22z m365 -11 c-12 -20 -14 -14 -5 12 4 9 9
14 11 11 3 -2 0 -13 -6 -23z m-511 -18 c0 -5 -5 -3 -10 5 -5 8 -10 20 -10 25
0 6 5 3 10 -5 5 -8 10 -19 10 -25z m-384 -99 c18 -18 18 -30 0 -45 -10 -8 -16
-9 -21 -1 -3 5 -1 10 6 10 8 0 8 4 -1 15 -7 8 -19 15 -27 15 -8 0 -11 5 -8 10
9 14 34 12 51 -4z m-97 -11 c2 -3 0 -10 -6 -16 -6 -6 -9 -17 -7 -23 3 -8 -12
-18 -35 -26 -33 -10 -43 -11 -56 0 -21 17 -19 37 5 43 11 3 20 12 20 21 0 12
8 14 37 10 20 -2 39 -7 42 -9z m31 -11 c0 -8 -4 -12 -10 -9 -5 3 -10 10 -10
16 0 5 5 9 10 9 6 0 10 -7 10 -16z m-200 -54 c0 -12 -28 -25 -36 -17 -9 9 6
27 22 27 8 0 14 -5 14 -10z m-2790 -44 c0 -2 -8 -10 -17 -17 -16 -13 -17 -12
-4 4 13 16 21 21 21 13z m3034 -103 c4 -4 13 -8 19 -9 7 0 21 -2 32 -3 28 -2
49 -17 41 -29 -4 -7 -17 -7 -39 0 -35 11 -90 47 -71 48 6 0 14 -3 18 -7z
m-4758 -802 c9 -12 22 -20 30 -17 7 3 20 -5 29 -17 12 -17 17 -19 24 -8 6 9 9
5 9 -14 0 -22 -9 -30 -47 -48 -25 -12 -48 -25 -51 -28 -3 -4 -16 -10 -30 -14
-14 -4 -42 -19 -62 -31 -52 -33 -66 -31 -63 9 1 17 -2 43 -7 56 -7 19 -4 29
12 46 11 12 25 38 31 58 9 35 10 35 60 33 38 -2 53 -8 65 -25z m6874 -101 c0
-11 -13 -42 -30 -68 -16 -27 -30 -62 -30 -79 0 -16 -4 -33 -10 -39 -9 -9 4
-62 24 -92 4 -7 32 -24 61 -37 30 -13 84 -46 121 -74 37 -28 71 -51 76 -51 14
0 74 -102 91 -157 9 -28 17 -68 17 -87 0 -31 4 -38 34 -50 18 -8 36 -18 40
-24 3 -5 29 -15 57 -22 65 -16 77 -39 60 -113 -15 -65 -76 -169 -130 -222 -38
-37 -41 -43 -41 -95 1 -30 7 -66 15 -80 24 -41 18 -75 -16 -104 -17 -14 -41
-26 -55 -26 -29 0 -30 -6 -4 -45 59 -88 -17 -202 -114 -173 -41 13 -103 77
-113 116 -9 38 43 104 97 122 25 8 46 15 48 16 5 3 -17 77 -27 94 -9 12 -14
11 -34 -8 -13 -12 -28 -22 -34 -22 -6 0 -13 -3 -15 -7 -7 -17 -79 -64 -156
-102 -68 -35 -89 -41 -142 -41 -35 0 -80 5 -102 12 -51 15 -63 3 -63 -65 -1
-29 -7 -74 -15 -100 -12 -39 -12 -51 -1 -69 14 -22 7 -34 -23 -40 -26 -4 -38
-53 -25 -101 18 -67 -5 -287 -34 -324 -15 -20 -45 -15 -61 10 -8 12 -27 55
-41 96 -22 61 -26 83 -20 128 5 40 2 63 -9 87 -10 22 -13 42 -7 62 4 16 4 41
0 56 -4 15 -5 37 -3 50 18 97 19 125 6 156 -11 30 -11 37 4 60 16 25 16 27 -1
37 -10 5 -36 28 -57 50 -33 35 -38 46 -38 88 0 50 -13 60 -36 30 -7 -10 -16
-14 -21 -9 -4 5 -2 11 5 13 6 3 10 8 8 12 -2 3 6 11 20 18 22 10 24 9 30 -25
4 -22 21 -50 45 -73 22 -21 39 -43 39 -48 0 -19 43 -24 56 -7 10 14 8 25 -9
57 -18 34 -22 37 -31 22 -19 -36 -30 -30 -58 30 -16 34 -41 75 -56 91 -15 16
-22 30 -17 32 6 3 9 19 7 38 -3 29 -9 35 -43 45 -43 13 -49 29 -19 56 11 10
20 24 20 32 0 7 9 13 20 13 11 0 20 -6 20 -13 0 -7 9 -13 20 -14 11 -1 20 2
20 7 0 5 7 7 15 4 11 -5 15 1 15 17 0 46 -11 70 -30 64 -9 -3 -24 3 -35 15
-17 19 -65 28 -65 13 0 -12 -70 -7 -83 6 -15 15 -42 14 -57 -4 -16 -20 -64
-19 -84 1 -24 24 -19 50 16 77 l31 25 -34 17 c-48 24 -69 45 -69 67 0 11 -14
33 -30 50 -35 34 -49 86 -50 175 0 64 11 100 42 142 10 13 18 34 18 46 0 36
38 77 68 73 19 -2 31 -15 48 -48 29 -59 51 -77 94 -81 33 -4 35 -2 33 26 -3
36 30 87 66 102 20 9 131 21 206 23 6 0 39 -5 75 -10 118 -19 121 -19 147 20
35 50 139 76 206 51 30 -12 34 -9 80 62 39 59 57 71 57 37z m-4400 -440 c0
-13 -11 -13 -30 0 -12 8 -11 10 8 10 12 0 22 -4 22 -10z m3540 -544 c0 -8 -5
-18 -10 -21 -13 -8 -42 14 -34 26 9 15 44 10 44 -5z m2604 -126 c18 -6 37 -33
66 -90 22 -45 40 -87 40 -95 0 -7 7 -26 15 -41 8 -16 15 -37 15 -46 0 -9 7
-24 17 -33 12 -12 13 -19 4 -24 -6 -4 -14 -21 -17 -37 -8 -49 -24 -92 -40
-104 -7 -7 -14 -21 -14 -31 0 -27 -28 -23 -42 6 -6 14 -17 25 -25 25 -7 0 -14
5 -14 10 -3 19 -5 25 -37 89 -18 36 -32 70 -32 77 0 6 -7 18 -17 25 -9 8 -22
28 -30 44 -7 17 -22 44 -33 60 -11 17 -24 40 -29 52 -5 11 -15 24 -20 28 -6 3
-11 15 -11 26 0 10 -4 19 -10 19 -5 0 -10 8 -10 18 1 16 2 16 14 -1 14 -18 15
-18 48 0 54 30 120 39 162 23z m-1896 -603 c20 -15 15 -75 -7 -87 -33 -17 -54
-11 -96 25 -38 33 -39 35 -20 47 53 34 92 39 123 15z"/>
<path d="M5373 8579 c-18 -18 -17 -63 0 -56 21 8 8 -42 -14 -56 -11 -7 -19
-18 -19 -25 0 -18 57 23 64 46 3 10 0 37 -7 60 -10 35 -14 41 -24 31z"/>
<path d="M5340 8510 c0 -5 5 -10 11 -10 5 0 7 5 4 10 -3 6 -8 10 -11 10 -2 0
-4 -4 -4 -10z"/>
<path d="M5327 8483 c-4 -3 -7 -11 -7 -17 0 -6 5 -5 12 2 6 6 9 14 7 17 -3 3
-9 2 -12 -2z"/>
<path d="M4440 8429 c0 -5 5 -7 10 -4 6 3 10 8 10 11 0 2 -4 4 -10 4 -5 0 -10
-5 -10 -11z"/>
<path d="M5177 8424 c-9 -10 2 -24 18 -24 9 0 12 6 9 15 -6 16 -17 19 -27 9z"/>
<path d="M5150 8390 c0 -5 5 -10 11 -10 5 0 7 5 4 10 -3 6 -8 10 -11 10 -2 0
-4 -4 -4 -10z"/>
<path d="M4030 7486 c0 -9 7 -12 21 -9 16 4 17 8 7 14 -19 13 -28 11 -28 -5z"/>
<path d="M4030 7330 c0 -5 5 -10 10 -10 6 0 10 5 10 10 0 6 -4 10 -10 10 -5 0
-10 -4 -10 -10z"/>
<path d="M4014 7246 c-6 -6 -8 -20 -4 -31 6 -16 8 -15 13 10 6 35 6 37 -9 21z"/>
<path d="M4060 7234 c0 -8 5 -12 10 -9 6 3 10 10 10 16 0 5 -4 9 -10 9 -5 0
-10 -7 -10 -16z"/>
<path d="M5298 6843 c7 -3 16 -2 19 1 4 3 -2 6 -13 5 -11 0 -14 -3 -6 -6z"/>
<path d="M5435 6830 c19 -9 19 -9 -2 -16 -13 -3 -23 -9 -23 -13 0 -3 -15 -13
-32 -21 l-33 -15 34 -3 c25 -3 31 -6 20 -13 -11 -7 -10 -9 6 -9 l20 -1 -20
-15 c-19 -15 -17 -16 25 -11 42 6 91 -3 133 -24 13 -7 17 -5 17 7 0 11 5 14
16 10 45 -17 64 -18 70 -2 7 18 64 19 64 1 0 -5 7 -1 15 9 9 12 15 15 15 7 0
-8 6 -11 15 -7 10 3 15 -1 15 -12 1 -12 6 -8 16 11 15 27 16 28 29 10 14 -17
14 -17 15 7 0 27 15 17 23 -15 3 -13 5 -9 6 13 0 17 -4 32 -10 32 -6 0 -8 8
-5 18 5 15 -2 21 -31 30 -20 6 -40 9 -45 6 -5 -3 -20 1 -33 10 -26 17 -105 22
-105 7 0 -16 -43 -20 -64 -5 -11 7 -25 14 -31 14 -5 0 -4 -4 3 -9 11 -7 11 -9
-2 -14 -9 -4 -15 -1 -13 6 2 13 -15 14 -59 3 -17 -5 -23 -3 -19 4 4 6 -5 10
-22 9 -25 0 -26 -1 -8 -9z"/>
<path d="M5920 6770 c0 -5 5 -10 11 -10 5 0 7 5 4 10 -3 6 -8 10 -11 10 -2 0
-4 -4 -4 -10z"/>
<path d="M5188 6763 c7 -3 16 -2 19 1 4 3 -2 6 -13 5 -11 0 -14 -3 -6 -6z"/>
<path d="M5305 6750 c-3 -5 -1 -10 4 -10 6 0 11 5 11 10 0 6 -2 10 -4 10 -3 0
-8 -4 -11 -10z"/>
<path d="M6670 6650 c-131 -8 -270 -39 -302 -68 -10 -8 -18 -26 -18 -39 0 -26
15 -31 23 -8 4 8 25 24 48 35 47 25 193 64 212 57 6 -2 -1 -8 -18 -12 -37 -9
-93 -33 -99 -43 -2 -4 7 -9 21 -10 39 -3 52 -19 46 -55 -4 -28 0 -34 26 -50
17 -10 31 -25 31 -34 0 -11 6 -14 23 -9 12 3 25 6 29 6 3 0 4 10 2 23 -4 20
-4 20 6 -2 l11 -25 25 28 c24 26 27 26 50 12 32 -21 39 -20 69 10 19 19 23 29
15 39 -8 10 -5 18 15 33 29 23 32 32 9 32 -8 0 -13 4 -10 9 10 15 -5 41 -23
41 -9 0 -24 9 -34 20 -9 11 -20 19 -24 18 -5 0 -64 -4 -133 -8z"/>
<path d="M5515 6519 c-141 -34 -240 -62 -251 -70 -6 -5 -19 -10 -30 -12 -10
-2 -26 -7 -34 -10 -8 -3 -55 -19 -105 -36 -55 -19 -98 -40 -110 -54 -11 -13
-37 -37 -59 -52 -53 -40 -27 -44 34 -5 41 26 53 30 65 20 8 -7 13 -16 10 -20
-3 -5 -1 -12 5 -15 6 -4 20 5 31 18 15 21 25 24 47 19 61 -15 97 -3 86 30 -4
15 -3 18 6 13 7 -4 16 -1 21 6 8 14 12 16 50 18 16 1 20 6 16 21 -3 11 -3 20
-1 20 13 0 42 -39 48 -65 4 -16 13 -33 19 -37 32 -20 187 -1 187 23 0 5 23 7
52 5 28 -2 58 -2 65 1 20 8 16 41 -7 55 -19 12 -19 13 3 25 21 12 21 12 2 13
-18 1 -18 2 3 10 12 5 22 17 22 25 0 9 5 13 10 10 6 -3 17 1 26 9 9 9 20 14
25 11 15 -10 10 12 -6 25 -8 6 -19 9 -24 6 -5 -4 -12 -2 -16 4 -10 16 -102 11
-190 -11z"/>
<path d="M6350 6470 c0 -5 4 -10 9 -10 6 0 13 5 16 10 3 6 -1 10 -9 10 -9 0
-16 -4 -16 -10z"/>
<path d="M5595 6309 c-9 -14 -2 -20 14 -10 8 6 9 11 3 15 -6 3 -14 1 -17 -5z"/>
<path d="M5550 6280 c0 -6 7 -10 15 -10 8 0 15 2 15 4 0 2 -7 6 -15 10 -8 3
-15 1 -15 -4z"/>
<path d="M3770 6178 c0 -44 3 -59 10 -48 13 20 13 97 0 105 -6 4 -10 -17 -10
-57z"/>
<path d="M3623 5660 c2 -28 20 -31 25 -4 2 9 -1 14 -6 10 -6 -3 -13 0 -16 6
-3 7 -4 2 -3 -12z"/>
<path d="M3580 5656 c0 -9 5 -16 10 -16 6 0 10 4 10 9 0 6 -4 13 -10 16 -5 3
-10 -1 -10 -9z"/>
<path d="M3680 5635 c0 -15 4 -24 10 -20 6 3 10 12 10 20 0 8 -4 17 -10 20 -6
4 -10 -5 -10 -20z"/>
<path d="M3680 5591 c0 -6 4 -11 9 -11 5 0 12 -8 15 -17 3 -11 4 -8 3 6 -2 24
-27 44 -27 22z"/>
<path d="M3624 5555 c4 -16 14 -37 22 -45 14 -13 15 -12 8 15 -3 17 -13 37
-21 45 -14 13 -15 12 -9 -15z"/>
<path d="M3724 5407 c3 -78 9 -115 21 -133 9 -14 19 -23 22 -21 3 3 -2 16 -11
29 -18 25 -22 93 -6 103 16 10 12 47 -10 90 l-20 39 4 -107z"/>
<path d="M3655 5397 c-5 -19 -2 -35 11 -55 17 -25 19 -25 22 -7 1 12 -4 36
-12 55 l-14 35 -7 -28z"/>
<path d="M6044 5400 c-28 -9 -63 -37 -53 -43 2 -1 33 -12 69 -24 67 -23 155
-28 178 -10 8 6 12 6 12 -2 0 -6 6 -11 13 -11 6 0 25 -7 42 -16 43 -22 105
-10 105 20 0 26 -33 60 -75 76 -39 16 -250 22 -291 10z"/>
<path d="M5811 5380 c0 -19 33 -56 80 -93 48 -37 70 -35 34 3 -16 17 -32 30
-37 30 -4 0 -23 17 -43 38 -21 22 -34 31 -34 22z"/>
<path d="M3774 5367 c3 -10 6 -25 6 -33 0 -8 5 -14 10 -14 15 0 12 22 -7 45
-14 18 -15 18 -9 2z"/>
<path d="M3807 5298 c-5 -15 9 -38 25 -38 12 0 10 14 -5 34 -12 16 -15 17 -20
4z"/>
<path d="M6483 5283 c-21 -8 -15 -22 7 -16 11 3 20 9 20 14 0 10 -8 10 -27 2z"/>
<path d="M6410 5240 c0 -8 -21 -11 -76 -8 -76 4 -101 -5 -71 -27 9 -7 18 -23
20 -36 4 -24 47 -42 47 -20 0 6 11 11 25 11 20 0 25 -5 25 -23 0 -26 54 -107
70 -107 6 0 8 -10 5 -23 -4 -15 1 -32 14 -48 l21 -24 6 23 c5 19 13 22 53 21
31 -1 53 -8 69 -22 l22 -20 0 27 c0 14 -7 29 -15 32 -8 4 -15 11 -15 17 0 5 9
2 19 -7 13 -11 21 -14 26 -7 3 6 -1 14 -9 17 -9 3 -29 29 -45 58 -17 28 -39
59 -50 68 -12 10 -21 27 -21 37 0 11 -7 27 -16 36 -15 15 -18 15 -35 -1 -17
-16 -19 -15 -28 10 -6 14 -13 26 -16 26 -4 0 -3 -6 1 -12 5 -9 2 -9 -9 1 -12
10 -17 10 -17 1z m97 -46 c-3 -3 -12 -4 -19 -1 -8 3 -5 6 6 6 11 1 17 -2 13
-5z m8 -194 c3 -5 -3 -10 -14 -10 -12 0 -21 5 -21 10 0 6 6 10 14 10 8 0 18
-4 21 -10z"/>
<path d="M3911 5204 c0 -11 3 -14 6 -6 3 7 2 16 -1 19 -3 4 -6 -2 -5 -13z"/>
<path d="M3760 5123 c0 -10 5 -25 10 -33 7 -11 10 -7 10 18 0 17 -4 32 -10 32
-5 0 -10 -8 -10 -17z"/>
<path d="M3830 5114 c0 -10 28 -34 39 -34 18 0 12 19 -8 30 -22 11 -31 13 -31
4z"/>
<path d="M3872 5058 c2 -6 10 -14 16 -16 7 -2 10 2 6 12 -7 18 -28 22 -22 4z"/>
<path d="M6776 5045 c4 -8 8 -15 10 -15 2 0 4 7 4 15 0 8 -4 15 -10 15 -5 0
-7 -7 -4 -15z"/>
<path d="M6042 5034 c-8 -8 -11 -24 -7 -37 5 -19 4 -20 -5 -4 -18 28 -30 20
-19 -12 12 -33 39 -50 39 -24 0 14 2 14 14 -3 13 -17 15 -17 21 -2 4 9 2 25
-4 36 -8 15 -8 21 0 24 6 2 3 11 -8 20 -16 14 -20 14 -31 2z"/>
<path d="M4010 5010 c0 -5 5 -10 11 -10 5 0 7 5 4 10 -3 6 -8 10 -11 10 -2 0
-4 -4 -4 -10z"/>
<path d="M6697 5004 c-9 -26 1 -54 19 -54 16 0 18 12 5 26 -5 5 -11 18 -13 29
-4 19 -4 19 -11 -1z"/>
<path d="M3851 4962 c-3 -55 -5 -59 -26 -42 -13 11 -15 8 -15 -18 0 -17 -6
-32 -15 -36 -10 -3 -15 -19 -15 -45 0 -33 3 -39 16 -34 10 4 14 14 11 29 -6
34 7 51 28 34 14 -12 18 -12 26 1 7 11 9 10 10 -6 1 -11 1 -31 0 -45 -2 -21 1
-20 19 13 16 30 18 42 9 58 -9 18 -8 20 9 15 24 -8 33 3 26 32 -6 21 -44 28
-44 7 -1 -23 -20 22 -20 47 0 47 -16 39 -19 -10z"/>
<path d="M5947 5003 c-4 -3 -7 -20 -7 -36 0 -38 9 -30 15 12 4 32 3 35 -8 24z"/>
<path d="M6160 4993 c0 -11 6 -28 14 -38 13 -18 14 -17 9 10 -4 24 -2 27 7 15
9 -13 11 -12 8 5 -4 26 -38 33 -38 8z"/>
<path d="M3796 4992 c-3 -6 -2 -21 3 -33 l8 -24 8 24 c7 24 -8 51 -19 33z"/>
<path d="M6655 4909 c-4 -18 -3 -35 4 -42 8 -8 11 -2 11 22 0 23 4 30 13 25 8
-5 8 -2 -2 9 -18 22 -18 22 -26 -14z"/>
<path d="M5790 4917 c0 -23 23 -35 50 -27 l25 7 -29 12 c-16 6 -33 14 -37 17
-5 3 -9 -1 -9 -9z"/>
<path d="M5375 4876 c-17 -35 -20 -38 -23 -18 -2 12 -7 22 -12 22 -4 0 -8 -10
-8 -22 0 -13 -2 -40 -4 -60 -3 -27 0 -38 9 -38 8 0 10 -7 6 -17 -6 -16 -5 -16
10 -4 9 7 15 17 12 21 -3 5 -1 11 5 15 5 3 11 -2 11 -12 1 -10 5 20 10 67 4
46 7 85 6 86 -1 1 -11 -17 -22 -40z"/>
<path d="M6045 4910 c3 -5 8 -10 11 -10 2 0 4 5 4 10 0 6 -5 10 -11 10 -5 0
-7 -4 -4 -10z"/>
<path d="M4025 4893 c4 -10 7 -31 6 -48 0 -16 4 -37 10 -45 9 -13 10 -13 6 0
-2 8 0 23 5 34 7 12 6 22 -1 29 -6 6 -11 19 -11 29 0 10 -5 18 -11 18 -7 0 -8
-7 -4 -17z"/>
<path d="M5420 4844 c-12 -27 -20 -58 -17 -70 2 -12 -2 -30 -10 -40 -7 -10
-13 -12 -13 -5 0 7 -13 0 -28 -15 -19 -20 -29 -39 -30 -64 -1 -36 2 -33 12 10
3 14 15 31 27 38 18 12 21 12 17 0 -5 -11 27 -13 171 -12 97 1 190 4 206 7 68
12 307 28 395 26 52 -1 113 3 135 9 95 25 147 34 170 28 31 -8 83 14 114 47
31 35 13 43 -52 23 -26 -8 -56 -12 -67 -9 -12 3 -28 -1 -38 -10 -9 -8 -46 -26
-82 -40 -62 -23 -75 -24 -284 -23 -163 1 -220 4 -223 13 -3 9 -12 7 -31 -7
-34 -25 -143 -34 -335 -29 -27 0 -31 22 -17 95 7 35 10 68 6 71 -3 3 -15 -16
-26 -43z"/>
<path d="M5833 4873 c-18 -7 -16 -30 3 -37 21 -8 22 -6 15 20 -3 11 -12 19
-18 17z"/>
<path d="M5277 4784 c-11 -24 -13 -34 -5 -32 14 5 42 68 31 68 -5 0 -16 -17
-26 -36z"/>
<path d="M3989 4802 c8 -6 11 -17 8 -25 -3 -9 -1 -18 6 -21 9 -3 9 -5 0 -5 -7
-1 -13 -11 -13 -23 0 -26 18 -13 23 17 1 11 6 26 11 33 10 16 8 18 -24 26 -17
5 -21 4 -11 -2z"/>
<path d="M5296 4728 c-4 -9 -5 -22 -1 -29 4 -6 1 -15 -6 -20 -7 -4 -10 -11 -6
-15 14 -14 28 14 25 47 -3 26 -6 30 -12 17z"/>
<path d="M4060 4711 c0 -6 5 -13 10 -16 6 -3 10 1 10 9 0 9 -4 16 -10 16 -5 0
-10 -4 -10 -9z"/>
<path d="M5246 4673 c-3 -3 -7 -25 -7 -47 -1 -38 -2 -39 -8 -11 -7 29 -7 28
-13 -15 -4 -25 -3 -49 3 -54 15 -16 10 -29 -10 -23 -15 4 -20 -2 -23 -24 -3
-16 -1 -32 4 -37 5 -5 4 -20 -1 -35 -11 -28 1 -38 16 -14 15 22 41 130 36 145
-3 8 -1 17 6 21 13 8 23 89 11 96 -4 2 -10 2 -14 -2z"/>
<path d="M4029 4611 c-8 -20 -15 -39 -17 -43 -2 -5 1 -8 7 -8 6 0 11 10 12 23
0 21 1 21 8 2 l8 -20 5 20 c4 14 6 10 7 -12 1 -36 15 -44 26 -15 6 16 7 15 18
-3 13 -23 38 -27 45 -7 2 7 -5 12 -17 12 -16 0 -21 7 -22 28 0 23 -2 24 -8 8
-7 -19 -8 -19 -15 -1 -5 13 -2 23 8 31 24 17 19 24 -18 22 -28 -1 -35 -6 -47
-37z"/>
<path d="M5276 4334 c-4 -14 -5 -29 -2 -31 3 -3 8 7 12 21 3 15 4 29 1 32 -2
3 -8 -7 -11 -22z"/>
<path d="M4350 4314 c0 -14 -4 -23 -10 -19 -5 3 -10 1 -10 -5 0 -7 8 -9 19 -5
30 9 51 -5 51 -35 0 -16 5 -32 10 -35 6 -3 10 1 10 10 0 11 5 15 15 11 9 -3
15 0 15 9 0 8 -4 15 -8 15 -5 0 -15 19 -22 41 -11 33 -15 38 -21 23 -6 -18 -7
-18 -14 -1 -11 26 -35 21 -35 -9z"/>
<path d="M4918 4293 c0 -10 -1 -24 -1 -30 1 -7 -5 -13 -13 -13 -8 0 -14 -8
-14 -19 0 -10 -7 -35 -15 -55 -19 -46 -12 -61 20 -40 12 8 25 11 27 7 3 -4 3
-2 2 4 -2 7 4 17 14 22 9 5 13 13 8 18 -5 4 -11 2 -13 -5 -3 -6 -9 -10 -13 -7
-12 7 -2 34 26 68 15 17 21 34 16 45 -6 16 -7 16 -10 0 -2 -10 -7 -18 -12 -18
-5 0 -7 6 -4 14 3 8 1 17 -5 21 -6 3 -12 -2 -13 -12z"/>
<path d="M4662 4288 c-7 -7 -12 -21 -12 -32 1 -18 3 -17 16 7 17 31 15 44 -4
25z"/>
<path d="M4812 4283 c-10 -4 -9 -8 5 -18 20 -15 33 -11 33 11 0 14 -14 17 -38
7z"/>
<path d="M5220 4279 c0 -5 5 -7 10 -4 6 3 10 8 10 11 0 2 -4 4 -10 4 -5 0 -10
-5 -10 -11z"/>
<path d="M4499 4246 c4 -16 12 -31 19 -34 9 -3 11 4 6 23 -4 18 -2 30 7 36 10
6 6 8 -12 7 -23 -2 -25 -5 -20 -32z"/>
<path d="M4731 4249 c-12 -5 -26 -7 -31 -4 -4 3 -14 -3 -21 -12 -11 -13 -11
-17 -1 -21 7 -2 19 -11 27 -19 20 -20 46 -9 42 18 -1 12 3 24 9 26 7 2 10 -6
9 -22 -2 -14 1 -25 6 -25 5 0 9 9 9 19 0 10 7 21 15 25 8 3 15 10 15 15 0 12
-47 11 -79 0z"/>
<path d="M4607 4223 c-12 -16 -25 -22 -37 -18 -11 3 -20 0 -23 -9 -9 -23 7
-27 41 -11 37 19 53 37 44 52 -5 7 -14 2 -25 -14z"/>
<path d="M4798 4194 c-4 -4 -3 -13 4 -21 8 -11 7 -17 -8 -28 -26 -20 -34 -18
-34 5 0 20 -1 20 -19 3 -22 -21 -41 -56 -41 -75 0 -7 8 -1 18 15 17 28 32 35
32 16 0 -6 9 -9 20 -6 17 4 18 2 9 -14 -6 -13 -6 -19 1 -19 5 0 11 -12 11 -27
2 -24 2 -25 6 -5 2 12 9 20 14 17 5 -4 9 3 9 15 0 12 5 31 11 42 9 16 8 19 -1
13 -10 -6 -11 -1 -6 19 3 14 2 26 -3 26 -5 0 -11 7 -13 16 -2 9 -6 12 -10 8z"/>
<path d="M5037 4138 c-3 -23 -13 -45 -21 -50 -18 -10 -22 -28 -6 -28 5 0 20
21 32 48 12 26 26 49 30 50 15 7 8 22 -11 22 -14 0 -20 -10 -24 -42z"/>
<path d="M4963 4145 c-8 -23 0 -25 21 -4 18 17 18 19 2 19 -9 0 -19 -7 -23
-15z"/>
<path d="M4660 4109 c0 -5 5 -7 10 -4 6 3 10 8 10 11 0 2 -4 4 -10 4 -5 0 -10
-5 -10 -11z"/>
<path d="M4910 4086 c0 -8 -7 -17 -16 -20 -9 -4 -14 -9 -11 -13 4 -3 1 -13 -6
-21 -6 -9 5 -4 25 9 38 24 51 59 23 59 -8 0 -15 -6 -15 -14z"/>
<path d="M4838 4083 c6 -2 18 -2 25 0 6 3 1 5 -13 5 -14 0 -19 -2 -12 -5z"/>
<path d="M4814 4005 c-6 -25 2 -62 12 -53 2 3 9 19 13 36 7 23 6 32 -5 36 -9
3 -16 -4 -20 -19z"/>
<path d="M5600 4020 c0 -5 5 -10 10 -10 6 0 10 5 10 10 0 6 -4 10 -10 10 -5 0
-10 -4 -10 -10z"/>
<path d="M4981 3963 c-14 -51 -14 -80 2 -86 9 -3 12 13 14 59 0 35 0 64 -2 64
-2 0 -9 -17 -14 -37z"/>
<path d="M4911 3924 c0 -11 3 -14 6 -6 3 7 2 16 -1 19 -3 4 -6 -2 -5 -13z"/>
<path d="M5580 3925 c-7 -9 -8 -15 -2 -15 5 0 12 7 16 15 3 8 4 15 2 15 -2 0
-9 -7 -16 -15z"/>
<path d="M4880 3910 c0 -6 -11 -15 -25 -20 -14 -5 -25 -17 -24 -27 0 -10 3
-13 5 -6 3 7 11 10 19 7 7 -3 20 5 29 18 18 26 20 38 6 38 -5 0 -10 -5 -10
-10z"/>
<path d="M6266 3865 c5 -11 2 -13 -10 -9 -9 3 -16 1 -16 -5 0 -6 9 -11 20 -11
13 0 20 7 20 20 0 11 -4 20 -10 20 -5 0 -7 -7 -4 -15z"/>
<path d="M6181 3824 c0 -11 3 -14 6 -6 3 7 2 16 -1 19 -3 4 -6 -2 -5 -13z"/>
<path d="M6270 3816 c0 -9 5 -16 10 -16 6 0 10 4 10 9 0 6 -4 13 -10 16 -5 3
-10 -1 -10 -9z"/>
<path d="M4687 3803 c-4 -3 -7 -11 -7 -17 0 -6 5 -5 12 2 6 6 9 14 7 17 -3 3
-9 2 -12 -2z"/>
<path d="M5832 3760 c0 -14 2 -19 5 -12 2 6 2 18 0 25 -3 6 -5 1 -5 -13z"/>
<path d="M6190 3768 c0 -18 18 -34 28 -24 3 4 -2 14 -11 23 -16 16 -17 16 -17
1z"/>
<path d="M5045 3750 c-3 -5 -1 -10 4 -10 6 0 11 5 11 10 0 6 -2 10 -4 10 -3 0
-8 -4 -11 -10z"/>
<path d="M6070 3752 c0 -5 7 -17 15 -28 15 -19 20 -8 9 20 -6 17 -24 22 -24 8z"/>
<path d="M5998 3705 c-8 -17 -8 -29 -1 -36 6 -6 13 2 20 26 13 41 -2 48 -19
10z"/>
<path d="M6220 3703 c0 -12 5 -25 10 -28 13 -8 13 15 0 35 -8 12 -10 11 -10
-7z"/>
<path d="M6076 3683 c-6 -14 -5 -15 5 -6 7 7 10 15 7 18 -3 3 -9 -2 -12 -12z"/>
<path d="M6021 3624 c0 -11 3 -14 6 -6 3 7 2 16 -1 19 -3 4 -6 -2 -5 -13z"/>
<path d="M4966 3585 c4 -17 2 -25 -6 -25 -10 0 -10 -3 0 -15 20 -24 28 -17 26
25 -1 25 -6 40 -14 40 -8 0 -10 -8 -6 -25z"/>
<path d="M4991 3484 c0 -11 3 -14 6 -6 3 7 2 16 -1 19 -3 4 -6 -2 -5 -13z"/>
<path d="M1310 7300 c0 -41 11 -49 40 -30 12 7 12 12 2 22 -9 9 -12 9 -12 0 0
-7 -4 -12 -10 -12 -14 0 -12 38 2 42 7 3 6 7 -5 11 -14 5 -17 0 -17 -33z"/>
<path d="M911 7224 c0 -11 3 -14 6 -6 3 7 2 16 -1 19 -3 4 -6 -2 -5 -13z"/>
<path d="M892 7180 c0 -14 2 -19 5 -12 2 6 2 18 0 25 -3 6 -5 1 -5 -13z"/>
<path d="M1303 7040 c0 -25 2 -35 4 -22 2 12 2 32 0 45 -2 12 -4 2 -4 -23z"/>
<path d="M1350 7059 c0 -18 -2 -19 -15 -9 -13 11 -15 8 -15 -14 0 -26 1 -26
18 -9 23 22 35 53 22 53 -6 0 -10 -10 -10 -21z"/>
<path d="M1320 6973 c0 -22 2 -25 10 -13 13 20 13 40 0 40 -5 0 -10 -12 -10
-27z"/>
<path d="M860 6908 c0 -9 5 -20 10 -23 13 -8 13 5 0 25 -8 13 -10 13 -10 -2z"/>
<path d="M8025 7100 c-3 -5 -1 -10 4 -10 6 0 11 5 11 10 0 6 -2 10 -4 10 -3 0
-8 -4 -11 -10z"/>
<path d="M490 5490 c0 -5 15 -10 33 -10 24 0 28 3 17 10 -20 13 -50 13 -50 0z"/>
<path d="M586 5491 c-4 -5 -2 -12 3 -15 5 -4 12 -2 15 3 4 5 2 12 -3 15 -5 4
-12 2 -15 -3z"/>
<path d="M620 5476 c0 -31 6 -34 13 -6 3 11 1 23 -4 26 -5 3 -9 -6 -9 -20z"/>
<path d="M171 5434 c0 -11 3 -14 6 -6 3 7 2 16 -1 19 -3 4 -6 -2 -5 -13z"/>
<path d="M607 5425 c-4 -11 -21 -26 -38 -34 -40 -18 -47 -37 -20 -62 11 -11
21 -24 21 -29 0 -17 18 -11 23 8 4 14 5 14 6 -3 0 -11 -8 -27 -19 -35 -11 -8
-20 -20 -20 -28 0 -13 -23 -42 -34 -42 -3 0 -6 7 -6 16 0 12 -3 14 -13 6 -7
-6 -25 -9 -39 -8 -17 2 -34 -4 -44 -16 -14 -14 -19 -16 -26 -6 -5 9 -8 6 -8
-9 0 -16 6 -23 20 -23 11 0 20 7 20 15 0 8 8 15 18 16 9 0 29 2 45 4 21 3 27
0 27 -16 0 -10 -6 -19 -14 -19 -19 0 -27 -39 -17 -75 5 -17 10 -24 10 -17 1 6
6 12 12 12 6 0 9 -7 6 -15 -4 -8 -1 -17 4 -21 6 -3 9 -15 6 -25 -3 -11 -2 -19
3 -19 14 0 21 32 10 45 -7 8 -4 17 9 29 19 17 19 17 14 -3 -3 -12 -1 -21 6
-21 6 0 11 12 12 28 0 15 3 21 6 13 4 -10 10 -5 18 15 7 16 10 33 7 38 -3 5
-9 1 -14 -10 -5 -12 -6 -4 -2 21 3 22 12 51 19 65 l14 25 2 -35 c1 -32 2 -33
9 -10 4 14 8 42 9 62 1 20 7 39 14 41 9 4 9 8 -2 15 -12 8 -12 13 -2 25 8 10
9 17 1 22 -5 3 -10 17 -10 31 0 24 -19 35 -21 12 -1 -7 -4 -2 -8 12 -7 23 -8
24 -14 5z m3 -65 c0 -11 -4 -20 -10 -20 -5 0 -10 9 -10 20 0 11 5 20 10 20 6
0 10 -9 10 -20z m-29 -166 c-7 -31 -9 -34 -10 -12 -1 27 9 62 15 55 3 -2 0
-22 -5 -43z"/>
<path d="M184 5405 c-4 -8 -3 -26 0 -40 5 -21 9 -23 20 -13 7 7 11 20 8 30 -2
10 1 18 7 18 6 0 11 5 11 10 0 16 -40 12 -46 -5z"/>
<path d="M151 5384 c0 -11 3 -14 6 -6 3 7 2 16 -1 19 -3 4 -6 -2 -5 -13z"/>
<path d="M482 5380 c0 -14 2 -19 5 -12 2 6 2 18 0 25 -3 6 -5 1 -5 -13z"/>
<path d="M167 5298 c7 -63 13 -75 13 -27 0 26 3 30 10 19 8 -13 10 -12 10 3 0
10 5 15 10 12 6 -3 10 -1 10 4 0 6 -9 11 -20 11 -11 0 -20 7 -20 15 0 8 -4 15
-10 15 -5 0 -7 -22 -3 -52z"/>
<path d="M140 5282 c0 -22 5 -44 10 -47 7 -4 8 8 4 37 -9 57 -14 61 -14 10z"/>
<path d="M426 5302 c-9 -8 -7 -32 2 -32 5 0 16 6 27 13 17 13 17 14 -3 19 -11
3 -23 3 -26 0z"/>
<path d="M517 5303 c-7 -12 4 -63 14 -63 5 0 6 15 2 33 -7 37 -9 41 -16 30z"/>
<path d="M428 5243 c7 -3 16 -2 19 1 4 3 -2 6 -13 5 -11 0 -14 -3 -6 -6z"/>
<path d="M345 5230 c4 -6 11 -8 16 -5 14 9 11 15 -7 15 -8 0 -12 -5 -9 -10z"/>
<path d="M280 5185 c0 -20 5 -25 25 -25 30 0 34 25 6 40 -28 14 -31 13 -31
-15z"/>
<path d="M168 5184 c-4 -6 -1 -28 7 -50 8 -21 14 -31 15 -21 0 10 7 25 15 34
19 19 11 31 -9 14 -12 -10 -15 -8 -18 11 -2 13 -6 18 -10 12z"/>
<path d="M347 5134 c-4 -4 -16 -7 -28 -8 -12 0 -24 -8 -26 -16 -4 -13 -3 -13
6 0 7 10 11 11 11 3 0 -7 7 -13 15 -13 8 0 15 5 15 10 0 6 14 10 31 10 17 0
28 4 24 10 -7 11 -38 14 -48 4z"/>
<path d="M430 5120 c-13 -8 -12 -10 3 -10 9 0 17 5 17 10 0 12 -1 12 -20 0z"/>
<path d="M210 5075 c0 -5 5 -17 10 -25 5 -8 10 -10 10 -5 0 6 -5 17 -10 25 -5
8 -10 11 -10 5z"/>
<path d="M288 5073 c6 -2 18 -2 25 0 6 3 1 5 -13 5 -14 0 -19 -2 -12 -5z"/>
<path d="M341 5076 c8 -8 88 -10 95 -3 4 4 -17 7 -46 7 -29 0 -51 -2 -49 -4z"/>
<path d="M1800 4210 c0 -5 5 -10 10 -10 6 0 10 5 10 10 0 6 -4 10 -10 10 -5 0
-10 -4 -10 -10z"/>
<path d="M1810 4134 c0 -14 5 -24 11 -22 6 2 10 7 10 11 -1 4 -1 14 -1 22 0 8
-4 15 -10 15 -5 0 -10 -12 -10 -26z"/>
<path d="M1761 4134 c0 -11 3 -14 6 -6 3 7 2 16 -1 19 -3 4 -6 -2 -5 -13z"/>
<path d="M1787 4130 c-9 -34 -9 -50 2 -50 13 0 18 22 11 50 l-6 25 -7 -25z"/>
<path d="M7140 1751 c0 -11 -4 -23 -10 -26 -13 -8 -13 -58 -1 -70 5 -6 11 -21
14 -35 2 -14 5 14 6 63 0 48 -1 87 -4 87 -3 0 -5 -9 -5 -19z"/>
<path d="M6523 1548 c-5 -7 -6 -24 -2 -38 5 -20 7 -21 8 -6 1 20 1 20 15 0 20
-27 28 -13 15 24 -12 34 -21 39 -36 20z"/>
<path d="M6876 1437 c3 -10 9 -15 12 -12 3 3 0 11 -7 18 -10 9 -11 8 -5 -6z"/>
<path d="M6900 1392 c0 -5 11 -19 25 -32 18 -17 28 -21 36 -13 7 7 2 17 -17
32 -28 22 -44 27 -44 13z"/>
<path d="M7487 1375 c-27 -20 -67 -72 -67 -86 0 -3 64 -3 143 -1 122 3 145 7
162 23 19 19 19 19 -32 19 -52 0 -109 19 -153 50 -24 17 -26 17 -53 -5z"/>
<path d="M2569 6594 c-35 -22 -62 -77 -46 -93 6 -6 16 -11 23 -11 6 0 17 -7
24 -15 11 -13 15 -10 31 24 18 41 60 71 101 71 21 0 21 1 6 16 -24 24 -107 29
-139 8z"/>
<path d="M2870 6477 c0 -19 29 -57 44 -57 7 0 25 -13 41 -30 36 -37 49 -38 40
-2 -13 52 -125 132 -125 89z"/>
<path d="M3010 6240 c-8 -5 -28 -10 -43 -10 -31 0 -86 -25 -88 -40 -5 -33 -2
-34 61 -35 36 -1 71 -5 78 -9 7 -4 12 -24 12 -44 0 -25 3 -33 10 -26 14 14 9
166 -5 171 -5 1 -17 -2 -25 -7z"/>
<path d="M2531 6054 c0 -11 3 -14 6 -6 3 7 2 16 -1 19 -3 4 -6 -2 -5 -13z"/>
<path d="M3096 5730 c-6 -45 -4 -58 12 -79 23 -31 88 -59 103 -44 14 14 -5 59
-39 93 -15 16 -36 41 -48 56 l-21 28 -7 -54z"/>
<path d="M3402 4547 c-11 -13 -11 -21 3 -46 19 -38 41 -40 47 -6 4 21 2 24
-13 20 -13 -5 -18 0 -21 21 -3 24 -5 25 -16 11z"/>
<path d="M3457 4413 c-11 -10 13 -33 34 -33 24 0 24 9 2 26 -21 15 -27 17 -36
7z"/>
<path d="M4985 3270 c-3 -5 -2 -10 4 -10 5 0 13 5 16 10 3 6 2 10 -4 10 -5 0
-13 -4 -16 -10z"/>
<path d="M5473 2588 c-18 -11 -20 -16 -9 -30 7 -10 18 -18 25 -18 6 0 11 -4
11 -10 0 -5 7 -10 15 -10 8 0 15 -7 15 -15 0 -13 -31 -21 -62 -16 -5 0 -8 -2
-8 -7 0 -10 40 -36 65 -42 11 -3 29 -22 40 -43 11 -20 26 -37 33 -37 6 0 12
-7 12 -16 0 -8 5 -12 10 -9 6 4 10 -6 10 -24 0 -24 -4 -29 -21 -28 -12 1 -27
14 -36 30 -11 22 -18 26 -26 18 -7 -7 -8 -14 -1 -21 15 -15 5 -90 -12 -90 -9
0 -14 -11 -14 -32 1 -30 2 -31 14 -15 14 18 14 18 20 0 3 -10 8 -36 12 -58 9
-52 16 -63 25 -39 6 15 8 12 8 -13 1 -26 -2 -30 -19 -26 -11 3 -20 0 -20 -6 0
-19 -16 -12 -28 12 -11 22 -11 22 -11 -5 -1 -15 4 -30 10 -34 15 -9 2 -72 -22
-105 -12 -17 -15 -30 -9 -34 5 -3 10 -1 10 4 0 6 3 11 8 11 11 0 9 -124 -3
-133 -6 -5 -3 -13 10 -22 18 -14 20 -14 28 7 7 19 10 20 17 8 6 -9 6 -16 0
-18 -6 -2 -10 -10 -10 -17 0 -7 -6 -15 -12 -17 -9 -3 -8 -9 5 -22 9 -10 17
-22 17 -27 0 -5 7 -9 15 -9 8 0 15 -4 15 -10 0 -11 -20 -14 -63 -11 -35 3 -57
-14 -50 -38 4 -15 14 -17 70 -15 36 2 68 5 71 8 2 3 -1 56 -8 118 -18 164 -3
469 28 578 17 59 22 66 61 83 53 24 67 57 42 106 -11 21 -18 47 -15 58 13 50
-202 116 -263 81z m97 -658 c-6 -35 -8 -38 -9 -15 -1 23 -3 27 -11 15 -8 -13
-10 -12 -10 4 0 15 30 51 36 43 1 -1 -2 -22 -6 -47z m7 -252 c-3 -7 -5 -2 -5
12 0 14 2 19 5 13 2 -7 2 -19 0 -25z"/>
<path d="M5408 2308 c-33 -17 -36 -22 -27 -39 5 -11 21 -25 35 -31 25 -12 48
-71 42 -111 -5 -38 50 -75 67 -46 4 5 4 22 0 37 -5 20 -8 23 -15 12 -7 -11
-11 -8 -20 15 -9 23 -8 32 3 40 7 5 20 31 29 57 15 48 15 48 -7 44 -16 -3 -26
3 -35 20 -15 28 -22 28 -72 2z"/>
<path d="M4715 2137 c-119 -115 -144 -142 -147 -156 -3 -10 16 -34 47 -61 28
-25 63 -61 77 -80 49 -66 81 -100 93 -100 6 0 33 -27 58 -60 26 -33 72 -76
102 -96 59 -40 71 -62 62 -120 -8 -45 3 -37 32 24 22 47 26 50 75 60 63 13 79
3 64 -38 -9 -26 -66 -80 -84 -80 -11 0 -72 -70 -90 -104 -9 -15 -18 -53 -21
-82 -5 -47 -4 -54 10 -48 9 3 19 15 23 26 7 24 83 98 100 98 12 0 64 90 64
110 0 19 50 82 62 78 5 -2 8 -7 6 -11 -5 -11 42 -39 56 -34 8 3 22 26 31 51
10 25 22 46 26 46 5 0 9 6 9 14 0 10 -17 17 -54 21 -43 6 -55 11 -60 27 -3 14
-10 19 -22 14 -15 -6 -15 -5 -1 18 16 23 15 24 -14 36 -16 7 -41 13 -55 13
-20 0 -26 6 -31 28 -4 24 -8 27 -24 19 -10 -6 -31 -10 -48 -10 -16 0 -32 -6
-35 -12 -3 -9 -9 -7 -20 6 -17 21 -22 77 -9 90 11 10 32 109 26 119 -8 13 -76
38 -89 33 -8 -3 -14 -28 -16 -63 -2 -43 -7 -58 -17 -58 -22 0 -25 79 -5 99 16
16 16 17 -26 20 -8 1 -18 -3 -23 -9 -5 -6 -12 -3 -19 10 -6 11 -27 36 -47 55
-63 60 -64 64 -46 100 9 18 15 33 13 34 -2 1 -16 -11 -33 -27z"/>
<path d="M5540 2066 c0 -14 5 -26 10 -26 6 0 10 9 10 19 0 11 -4 23 -10 26 -6
4 -10 -5 -10 -19z"/>
<path d="M5455 2030 c4 -6 11 -8 16 -5 14 9 11 15 -7 15 -8 0 -12 -5 -9 -10z"/>
<path d="M5188 1816 c-6 -31 3 -47 20 -37 9 5 11 17 6 34 -8 34 -20 35 -26 3z"/>
<path d="M5157 1790 c-3 -11 -2 -20 3 -20 4 0 10 9 13 20 3 11 2 20 -3 20 -4
0 -10 -9 -13 -20z"/>
<path d="M5472 1190 c0 -19 2 -27 5 -17 2 9 2 25 0 35 -3 9 -5 1 -5 -18z"/>
<path d="M5702 1030 c1 -41 -15 -85 -34 -92 -8 -3 -27 -24 -42 -47 -23 -33
-26 -44 -16 -55 14 -17 6 -36 -16 -36 -17 0 -18 -18 -4 -55 8 -21 15 -26 31
-22 32 9 89 -27 82 -50 -3 -7 2 -26 10 -42 11 -22 12 -31 3 -35 -7 -3 -6 -5 3
-5 16 -1 40 -30 41 -49 0 -8 9 -26 19 -41 19 -26 31 -117 32 -248 1 -41 4 -53
16 -53 11 0 14 -7 9 -26 -4 -15 -2 -32 5 -40 7 -8 12 -42 12 -74 0 -44 3 -60
13 -60 8 0 16 10 18 23 32 152 33 193 6 246 -27 53 -60 168 -79 276 -32 174
-93 473 -101 495 -9 23 -9 23 -8 -10z"/>
<path d="M4872 940 c0 -14 2 -19 5 -12 2 6 2 18 0 25 -3 6 -5 1 -5 -13z"/>
</g>
</svg>
